<svg width="87" height="39" viewBox="0 0 87 39" fill="none" xmlns="http://www.w3.org/2000/svg">
<path fill-rule="evenodd" clip-rule="evenodd" d="M12 8.26663C5.74743 8.26663 0.677246 13.3357 0.677246 19.5894C0.677246 24.5923 3.92156 28.8363 8.42043 30.3337C8.98612 30.4387 9.19387 30.0881 9.19387 29.789C9.19387 29.519 9.18337 28.6271 9.1785 27.6809C6.0285 28.3659 5.36381 26.345 5.36381 26.345C4.84875 25.0363 4.10662 24.6883 4.10662 24.6883C3.07912 23.9855 4.18406 24.0001 4.18406 24.0001C5.32087 24.0798 5.91975 25.1669 5.91975 25.1669C6.92962 26.8976 8.56856 26.3973 9.21468 26.1082C9.31631 25.3764 9.60975 24.8767 9.93356 24.5939C7.41862 24.308 4.77468 23.3369 4.77468 18.9984C4.77468 17.7622 5.21718 16.7521 5.9415 15.959C5.82375 15.674 5.43618 14.5224 6.051 12.9628C6.051 12.9628 7.00162 12.6584 9.16537 14.1234C10.0687 13.8723 11.0376 13.7461 12 13.7418C12.9619 13.7461 13.9312 13.8719 14.8363 14.123C16.9974 12.6581 17.9469 12.9624 17.9469 12.9624C18.5632 14.5218 18.1757 15.6736 18.0581 15.9586C18.7841 16.7518 19.2234 17.7618 19.2234 18.998C19.2234 23.3469 16.5746 24.3043 14.0533 24.5848C14.4596 24.9361 14.8215 25.6254 14.8215 26.6816C14.8215 28.1966 14.8084 29.4159 14.8084 29.7888C14.8084 30.0901 15.0124 30.4432 15.5861 30.332C20.0824 28.8331 23.3229 24.5904 23.3229 19.5894C23.3227 13.3361 18.2531 8.26663 12 8.26663Z" fill="#181616"/>
<path d="M4.96579 24.5235C4.94086 24.5797 4.85236 24.5966 4.77173 24.5581C4.68923 24.5214 4.64329 24.4447 4.66992 24.3883C4.69429 24.3301 4.78298 24.3142 4.86492 24.353C4.94742 24.39 4.99429 24.4674 4.96561 24.5236L4.96579 24.5235ZM5.42442 25.0351C5.37061 25.0852 5.26504 25.062 5.19342 24.9826C5.11917 24.9039 5.10529 24.7983 5.16023 24.7475C5.21611 24.6976 5.31848 24.7213 5.39273 24.8C5.46661 24.8799 5.48123 24.9845 5.42461 25.0353L5.42442 25.0351ZM5.87104 25.6871C5.80167 25.7355 5.68804 25.6903 5.61792 25.5896C5.54854 25.4887 5.54854 25.3678 5.61979 25.3196C5.68973 25.2712 5.80167 25.3149 5.87292 25.4146C5.94192 25.5168 5.94192 25.638 5.87104 25.6871ZM6.48248 26.3173C6.42061 26.3857 6.28823 26.3673 6.19148 26.2741C6.09267 26.1828 6.06511 26.0529 6.12717 25.9846C6.19017 25.916 6.32311 25.9351 6.42042 26.0278C6.51923 26.1189 6.54904 26.249 6.48286 26.3171L6.48248 26.3173ZM7.32623 26.6831C7.29867 26.7718 7.17154 26.8121 7.04311 26.7742C6.91504 26.7354 6.83123 26.6317 6.85748 26.5421C6.88373 26.4526 7.01179 26.4108 7.14098 26.4511C7.26904 26.4898 7.35286 26.5929 7.32623 26.6831ZM8.25304 26.7508C8.25623 26.8441 8.14748 26.9214 8.01304 26.9233C7.87748 26.9265 7.76779 26.8507 7.76648 26.7588C7.76648 26.6645 7.87298 26.5882 8.00836 26.5856C8.14279 26.5831 8.25323 26.6581 8.25323 26.7506L8.25304 26.7508ZM9.11517 26.6041C9.13129 26.6951 9.03773 26.7886 8.90404 26.8136C8.77279 26.838 8.65092 26.7813 8.63404 26.6911C8.61792 26.5978 8.71317 26.5042 8.84442 26.48C8.97829 26.457 9.09829 26.5117 9.11517 26.6041Z" fill="#181616"/>
<path d="M33.944 25.3098C33.944 24.4565 34.072 23.6938 34.328 23.0218C34.584 22.3498 35.0213 21.7258 35.64 21.1498C36.2587 20.5738 37.112 19.9978 38.2 19.4218C38.7227 19.1551 39.1387 18.9098 39.448 18.6858C39.768 18.4511 39.9973 18.2111 40.136 17.9658C40.2747 17.7205 40.344 17.4218 40.344 17.0698C40.344 16.7071 40.264 16.3978 40.104 16.1418C39.9547 15.8751 39.7307 15.6671 39.432 15.5178C39.1333 15.3578 38.7547 15.2778 38.296 15.2778C37.5707 15.2778 36.9947 15.4751 36.568 15.8698C36.152 16.2538 35.8907 16.8085 35.784 17.5338L33.992 17.4218C34.12 16.2805 34.552 15.3738 35.288 14.7018C36.0347 14.0298 37.0373 13.6938 38.296 13.6938C39.1067 13.6938 39.7947 13.8378 40.36 14.1258C40.936 14.4031 41.3733 14.7925 41.672 15.2938C41.9813 15.7951 42.136 16.3765 42.136 17.0378C42.136 17.6138 42.04 18.1098 41.848 18.5258C41.656 18.9418 41.336 19.3311 40.888 19.6938C40.44 20.0458 39.832 20.4245 39.064 20.8298C38.0827 21.3525 37.3413 21.8698 36.84 22.3818C36.3387 22.8831 36.072 23.3311 36.04 23.7258H42.136V25.3098H33.944ZM43.4301 25.3098V23.2938H45.4941V25.3098H43.4301ZM50.8524 25.5658C49.9884 25.5658 49.2257 25.4378 48.5644 25.1818C47.903 24.9258 47.3857 24.5471 47.0124 24.0458C46.6497 23.5445 46.4684 22.9311 46.4684 22.2058C46.4684 21.3738 46.719 20.6858 47.2204 20.1418C47.7217 19.5978 48.3937 19.2351 49.2364 19.0538L49.2684 19.3738C48.5857 19.2138 48.0364 18.9205 47.6204 18.4938C47.215 18.0671 47.0124 17.5071 47.0124 16.8138C47.0124 16.2058 47.167 15.6671 47.4764 15.1978C47.7857 14.7285 48.223 14.3605 48.7884 14.0938C49.3644 13.8271 50.0524 13.6938 50.8524 13.6938C51.6417 13.6938 52.3244 13.8271 52.9004 14.0938C53.4764 14.3605 53.9137 14.7285 54.2124 15.1978C54.5217 15.6671 54.6764 16.2058 54.6764 16.8138C54.6764 17.5071 54.4737 18.0671 54.0684 18.4938C53.663 18.9098 53.1137 19.2031 52.4204 19.3738L52.4524 19.0538C53.3057 19.2351 53.983 19.5978 54.4844 20.1418C54.9857 20.6858 55.2364 21.3738 55.2364 22.2058C55.2364 22.9311 55.0497 23.5445 54.6764 24.0458C54.3137 24.5471 53.8017 24.9258 53.1404 25.1818C52.479 25.4378 51.7164 25.5658 50.8524 25.5658ZM50.8524 23.9818C51.6417 23.9818 52.2657 23.8218 52.7244 23.5018C53.1937 23.1711 53.4284 22.6805 53.4284 22.0298C53.4284 21.4111 53.215 20.9151 52.7884 20.5418C52.3724 20.1685 51.727 19.9818 50.8524 19.9818C49.9777 19.9818 49.327 20.1685 48.9004 20.5418C48.4737 20.9151 48.2604 21.4111 48.2604 22.0298C48.2604 22.6805 48.495 23.1711 48.9644 23.5018C49.4337 23.8218 50.063 23.9818 50.8524 23.9818ZM50.8524 18.5578C51.503 18.5578 52.0044 18.4245 52.3564 18.1578C52.719 17.8805 52.9004 17.4591 52.9004 16.8938C52.9004 16.4031 52.7244 16.0085 52.3724 15.7098C52.031 15.4111 51.5244 15.2618 50.8524 15.2618C50.1804 15.2618 49.6684 15.4111 49.3164 15.7098C48.9644 16.0085 48.7884 16.4031 48.7884 16.8938C48.7884 17.4591 48.9697 17.8805 49.3324 18.1578C49.695 18.4245 50.2017 18.5578 50.8524 18.5578ZM56.7244 25.3098V13.9498H58.4204V21.0058L62.2444 16.7978H64.3884L61.0604 20.3818L64.5164 25.3098H62.5644L59.9244 21.4378L58.4204 23.0378V25.3098H56.7244Z" fill="#020817"/>
<g clip-path="url(#clip0_2001_131)">
<path fill-rule="evenodd" clip-rule="evenodd" d="M80.7305 13.6246C80.4976 13.7325 80.484 13.7561 80.0191 14.8567C79.8639 15.2241 79.5804 15.8883 79.3891 16.3327L79.0413 17.1408L78.9484 17.1563C78.8973 17.1648 78.7711 17.1787 78.668 17.1871C78.5649 17.1955 78.4436 17.2066 78.3985 17.2118C78.3534 17.2169 78.2426 17.2274 78.1524 17.235C77.9902 17.2488 77.8299 17.2633 77.625 17.2829C77.567 17.2884 77.4457 17.2991 77.3555 17.3067C77.2653 17.3142 77.1545 17.3246 77.1094 17.3297C77.0643 17.3349 76.943 17.3456 76.8399 17.3536C76.7368 17.3617 76.626 17.3719 76.5938 17.3764C76.5616 17.3809 76.4455 17.3914 76.336 17.3997C75.8384 17.4377 75.4646 17.4828 75.3905 17.5137C75.0615 17.6513 74.9029 18.0743 75.0613 18.3922C75.1232 18.5165 75.3538 18.7302 76.4389 19.6689C76.4661 19.6924 76.5569 19.7725 76.6407 19.8468C76.9491 20.1203 77.6181 20.707 77.7212 20.7945L77.8275 20.8846L77.7846 21.0757C77.7343 21.2999 77.6414 21.7098 77.5659 22.0403C77.5365 22.1692 77.4852 22.3959 77.4519 22.5442C77.4186 22.6924 77.3121 23.1611 77.2152 23.5857C77.1183 24.0103 77.0391 24.3907 77.0391 24.4311C77.0391 24.8414 77.4835 25.1751 77.8618 25.0489C77.9491 25.0197 78.316 24.8058 79.5543 24.0623C80.0031 23.7928 80.5128 23.4889 80.6869 23.3869L81.0034 23.2015L82.4373 24.0594C83.2259 24.5312 83.9337 24.9502 84.0102 24.9905C84.3362 25.1621 84.7253 25.0382 84.8888 24.7109C84.9705 24.5473 84.9742 24.3988 84.9041 24.1028C84.8167 23.7337 84.3351 21.6177 84.2121 21.0629L84.1721 20.8824L84.2238 20.8402C84.2523 20.8171 84.342 20.7401 84.4233 20.6692C84.7214 20.4091 85.774 19.4858 85.9219 19.3546C86.0057 19.2803 86.1006 19.1968 86.1328 19.1691C86.52 18.8362 86.8243 18.5605 86.8685 18.5025C86.9777 18.3591 87.0235 18.2309 87.0231 18.0691C87.0229 17.9611 87.016 17.9258 87 17.9504C86.9807 17.9803 86.9773 17.9793 86.977 17.9436C86.9764 17.8759 86.8931 17.7334 86.8087 17.6558C86.6471 17.5072 86.5539 17.4745 86.2149 17.4477C86.1118 17.4395 85.9905 17.4286 85.9453 17.4235C85.9002 17.4183 85.7895 17.4079 85.6993 17.4002C85.537 17.3865 85.3768 17.3719 85.1719 17.3524C85.1139 17.3468 84.9926 17.3361 84.9024 17.3286C84.8121 17.3211 84.7014 17.3107 84.6563 17.3055C84.6112 17.3004 84.4899 17.2896 84.3868 17.2816C84.2836 17.2736 84.1729 17.2633 84.1407 17.2587C84.1084 17.2541 83.9871 17.2432 83.8711 17.2344C83.7551 17.2256 83.6444 17.2155 83.625 17.212C83.6057 17.2085 83.4897 17.1981 83.3672 17.1888C83.2448 17.1796 83.1029 17.165 83.0521 17.1565L82.9596 17.141L82.5576 16.2039C82.3365 15.6885 82.0366 14.9873 81.8912 14.6457C81.5725 13.8967 81.5416 13.8345 81.4416 13.739C81.2605 13.5661 80.9608 13.5179 80.7305 13.6246ZM75.0079 18.1145C75.0079 18.2112 75.0121 18.2507 75.0171 18.2024C75.0222 18.1541 75.0222 18.075 75.0171 18.0266C75.0121 17.9783 75.0079 18.0178 75.0079 18.1145Z" fill="black"/>
</g>
<defs>
<clipPath id="clip0_2001_131">
<rect width="12" height="12" fill="white" transform="translate(75 13.3098)"/>
</clipPath>
</defs>
</svg>
