<svg id="ePH6Ulaq5XZ1" xmlns="http://www.w3.org/2000/svg" xmlns:xlink="http://www.w3.org/1999/xlink" viewBox="0 0 392 451" shape-rendering="geometricPrecision" text-rendering="geometricPrecision" project-id="9ff395b8acee419299853e557c584b04" export-id="8c295677c99742d0ba104cdb9fcfce56" cached="false"><defs><filter id="ePH6Ulaq5XZ6-filter" x="-150%" y="-150%" width="400%" height="400%"><feGaussianBlur id="ePH6Ulaq5XZ6-filter-blur-0" stdDeviation="130,130" result="result"/></filter><linearGradient id="ePH6Ulaq5XZ7-fill" x1="111.767" y1="337" x2="128.006" y2="232.302" spreadMethod="pad" gradientUnits="userSpaceOnUse" gradientTransform="translate(0 0)"><stop id="ePH6Ulaq5XZ7-fill-0" offset="9.89855%" stop-color="#b73eee"/><stop id="ePH6Ulaq5XZ7-fill-1" offset="42.446%" stop-color="#d347f4"/><stop id="ePH6Ulaq5XZ7-fill-2" offset="81%" stop-color="#ffd02b"/><stop id="ePH6Ulaq5XZ7-fill-3" offset="100%" stop-color="#d87df8"/></linearGradient><linearGradient id="ePH6Ulaq5XZ63-fill" x1="0.5" y1="0" x2="0.5" y2="1" spreadMethod="pad" gradientUnits="objectBoundingBox" gradientTransform="translate(0 0)"><stop id="ePH6Ulaq5XZ63-fill-0" offset="0%" stop-color="rgba(255,255,255,0)"/><stop id="ePH6Ulaq5XZ63-fill-1" offset="100%" stop-color="#010022"/></linearGradient></defs><g clip-path="url(#ePH6Ulaq5XZ61)"><g><g mask="url(#ePH6Ulaq5XZ59)"><g><g filter="url(#ePH6Ulaq5XZ6-filter)"><path d="M203.535,282.5c2.143-3.713,2.143-8.287,0-12l-23.322-40.395c-2.143-3.712-6.105-6-10.392-6h-46.644c-4.287,0-8.249,2.288-10.392,6L89.4632,270.5c-2.1436,3.713-2.1436,8.287,0,12l23.3218,40.395c2.143,3.712,6.105,6,10.392,6h46.644c4.287,0,8.249-2.288,10.392-6L203.535,282.5Z" fill="url(#ePH6Ulaq5XZ7-fill)"/></g><g mask="url(#ePH6Ulaq5XZ57)"><g><path d="M110,242c0-4.418,3.582-8,8-8h266c4.418,0,8,3.582,8,8v209h-282v-209Z" fill="#fff"/><g mask="url(#ePH6Ulaq5XZ14)"><g><path d="M392,283.823h-282v1h282v-1Z" fill="#9b9b9b" fill-opacity="0.5"/></g><mask id="ePH6Ulaq5XZ14" mask-type="luminance" x="-150%" y="-150%" height="400%" width="400%"><path d="M110,234h282v50.323h-282L110,234Z" fill="#fff"/></mask></g><g mask="url(#ePH6Ulaq5XZ25)"><g><path d="M146.005,250.875v.25h.003.101m-.104-.25l.003.003.174.174-.073.073m0,0l-3.437,3.437c-.271.271-.422.635-.422,1.016v11.958c0,.329.265.594.594.594h16.312c.329,0,.594-.265.594-.594v-16.312c0-.329-.265-.594-.594-.594h-11.956c-.381,0-.747.151-1.015.421l-.073.074h-.003Z" fill="#9b9b9b"/><path d="M146.005,250.875l-3.51,3.511m3.51-3.511v.25h.003.101m-.104-.25l.003.003.174.174-.073.073m0,0l-3.437,3.437m3.437-3.437h.003l.073-.074c.268-.27.634-.421,1.015-.421h11.956c.329,0,.594.265.594.594v16.312c0,.329-.265.594-.594.594h-16.312c-.329,0-.594-.265-.594-.594v-11.958c0-.381.151-.745.422-1.016m0,0l-.176-.176" fill="none" stroke="#9b9b9b" stroke-width="0.5"/><path d="M154.735,262.239h-1.303v-5.244h3.473v1.221h-2.17v.936h2.045v1.191h-2.045v1.896Z" fill="#fff"/><path d="M153.09,260.038h1.291c-.191,1.335-1.313,2.218-2.672,2.218-1.489,0-2.701-1.116-2.701-2.619-.003-.349.065-.696.199-1.018.135-.323.333-.614.583-.857.514-.499,1.204-.775,1.919-.766c1.347,0,2.5.89,2.664,2.203h-1.29c-.388-1.487-2.806-1.342-2.806.438s2.448,1.911,2.813.402v-.001Z" opacity="0.05" fill="#002447"/><path d="M152.824,260.038c-.222.751-1.011,1.198-1.787,1.011-.777-.188-1.264-.941-1.102-1.707.161-.765.912-1.27,1.701-1.142.323.044.621.199.844.439.153.158.268.35.336.56h1.253c-.164-1.316-1.321-2.203-2.664-2.203-.716-.009-1.405.266-1.919.765-.251.243-.449.535-.584.858-.134.322-.202.669-.199,1.018c0,1.503,1.205,2.619,2.702,2.619c1.358,0,2.477-.883,2.672-2.218h-1.254.001Z" fill="#fff"/><path d="M148.931,261.476h-1.813l-.297.762h-1.387l2.123-5.249h.926l2.208,5.251h-1.465l-.295-.764Zm-1.298-1.299l-.045.118h.88l-.03-.089-.41-1.125-.395,1.096Z" opacity="0.05" fill="#002447"/><path d="M148.589,261.476h-1.811l-.296.762h-1.388l2.124-5.249h.925l2.209,5.251h-1.465l-.298-.764Zm-1.295-1.299l-.046.118h.881l-.031-.089-.41-1.125-.394,1.096Z" fill="#fff"/></g><mask id="ePH6Ulaq5XZ25" mask-type="luminance" x="-150%" y="-150%" height="400%" width="400%"><path d="M160,250h-18v18h18v-18Z" fill="#fff"/></mask></g><path d="M170.279,264l3.584-9.94h1.918l3.584,9.94h-1.61l-.91-2.59h-4.06l-.896,2.59h-1.61Zm2.982-3.962h3.122l-1.568-4.536-1.554,4.536Zm10.784,4.186c-.896,0-1.685-.205-2.366-.616-.682-.42-1.214-1.017-1.596-1.792-.383-.775-.574-1.699-.574-2.772c0-1.064.186-1.983.56-2.758.382-.784.914-1.386,1.596-1.806.681-.429,1.479-.644,2.394-.644c1.232,0,2.188.313,2.87.938.681.616,1.124,1.465,1.33,2.548l-1.582.084c-.131-.672-.411-1.204-.84-1.596-.43-.392-1.022-.588-1.778-.588-.607,0-1.134.154-1.582.462-.439.308-.784.747-1.036,1.316-.243.569-.364,1.251-.364,2.044s.121,1.475.364,2.044c.252.569.602,1.003,1.05,1.302s.966.448,1.554.448c.802,0,1.423-.21,1.862-.63.438-.429.718-1.017.84-1.764l1.582.084c-.187,1.129-.644,2.03-1.372,2.702-.719.663-1.69.994-2.912.994ZM189.77,264v-9.94h6.454v1.386h-4.942v3.024h4.69v1.344h-4.69v4.186h-1.512Z" fill="#9b9b9b"/><g mask="url(#ePH6Ulaq5XZ34)"><g><path d="M270,268.38c4.971,0,9-4.03,9-9c0-4.971-4.029-9-9-9s-9,4.029-9,9c0,4.97,4.029,9,9,9Z" fill="#9b9b9b"/><path d="M269.123,256.005h.945l-.267,1.42h.849c.466.01.812.114,1.041.312.233.198.301.575.205,1.13l-.459,2.475h-.958l.438-2.364c.046-.247.032-.423-.041-.527s-.231-.156-.473-.156l-.76-.008-.561,3.055h-.945l.986-5.337Z" fill="#fff"/><path d="M264.792,257.425h1.836c.539.005.928.173,1.17.505s.322.786.24,1.361c-.032.262-.102.52-.212.773-.105.253-.252.48-.439.684-.228.257-.472.421-.733.49-.26.07-.529.104-.808.104h-.821l-.261,1.413h-.952l.98-5.33Zm.39,3.077l.41-2.222h.138c.05,0,.103-.003.157-.008.366-.005.669.032.911.112.247.079.33.379.248.899-.101.62-.298.982-.59,1.086-.292.099-.658.146-1.096.141h-.096c-.027,0-.055-.003-.082-.008Z" clip-rule="evenodd" fill="#fff" fill-rule="evenodd"/><path d="M274.746,257.425h-1.835l-.979,5.33h.952l.26-1.413h.822c.278,0,.547-.034.808-.104.26-.069.504-.233.732-.49.188-.204.334-.431.439-.684.109-.253.18-.511.212-.773.082-.575.002-1.029-.24-1.361s-.632-.5-1.171-.505Zm-1.035.855l-.41,2.222c.028.005.055.008.082.008h.096c.439.005.804-.042,1.096-.141.292-.104.489-.466.589-1.086.082-.52,0-.82-.247-.899-.242-.08-.545-.117-.91-.112-.055.005-.108.008-.158.008h-.138Z" clip-rule="evenodd" fill="#fff" fill-rule="evenodd"/></g><mask id="ePH6Ulaq5XZ34" mask-type="luminance" x="-150%" y="-150%" height="400%" width="400%"><path d="M279,250h-18v18h18v-18Z" fill="#fff"/></mask></g><path d="M290.203,264v-9.94h3.71c1.129,0,2.011.275,2.646.826.644.541.966,1.297.966,2.268s-.322,1.736-.966,2.296c-.635.551-1.517.826-2.646.826h-2.198v3.724h-1.512Zm1.512-5.096h2.156c1.391,0,2.086-.583,2.086-1.75c0-1.139-.695-1.708-2.086-1.708h-2.156v3.458ZM298.851,264v-9.94h1.512v4.256h4.592v-4.256h1.512v9.94h-1.512v-4.312h-4.592v4.312h-1.512Zm9.495,0v-9.94h3.71c1.129,0,2.011.275,2.646.826.644.541.966,1.297.966,2.268s-.322,1.736-.966,2.296c-.635.551-1.517.826-2.646.826h-2.198v3.724h-1.512Zm1.512-5.096h2.156c1.391,0,2.086-.583,2.086-1.75c0-1.139-.695-1.708-2.086-1.708h-2.156v3.458Z" fill="#9b9b9b"/><g mask="url(#ePH6Ulaq5XZ40)"><g><path d="M474,282.823h-125v3h125v-3Z" fill="#ff4fae"/></g><mask id="ePH6Ulaq5XZ40" mask-type="luminance" x="-150%" y="-150%" height="400%" width="400%"><path d="M349,234h125v50.323h-125L349,234Z" fill="#fff"/></mask></g><g mask="url(#ePH6Ulaq5XZ47)"><g><path d="M366.34,266.784L365,250.41l16,.033-1.417,16.341-6.523,1.889-6.72-1.889Z" fill="#ff4fae"/><path d="M373.061,267.091v-15.121l6.588.022-1.175,13.529-5.413,1.57Z" fill="#fca1d2"/><path d="M372.354,253.765h-1.742v10.065l-1.355-.258v-1.355l-1.612-.258v3.032l4.709,1.226v-12.452Zm1.307,0h4.822l-.322,1.929h-2.659v3.166h2.659l-.323,6.389-4.177.968v-2l2.822-.968.163-2.645-2.985.432v-7.271Z" fill="#fff"/></g><mask id="ePH6Ulaq5XZ47" mask-type="luminance" x="-150%" y="-150%" height="400%" width="400%"><path d="M381,250h-16v18.323h16L381,250Z" fill="#fff"/></mask></g><path d="M395.172,264.386c-.663,0-1.246-.15-1.75-.448-.495-.308-.878-.728-1.149-1.26-.271-.542-.41-1.162-.419-1.862l1.54-.084c.009.746.168,1.311.476,1.694.308.382.742.574,1.302.574.588,0,1.036-.201,1.344-.602.317-.402.476-.98.476-1.736v-6.44h1.512v6.44c0,.756-.14,1.414-.42,1.974-.271.56-.653.994-1.148,1.302-.495.298-1.083.448-1.764.448Zm7.187-.056c-.775,0-1.395-.178-1.862-.532-.457-.355-.685-.854-.685-1.498s.19-1.144.573-1.498c.392-.364.994-.626,1.806-.784l2.563-.49c0-.579-.135-1.008-.406-1.288-.271-.29-.672-.434-1.204-.434-.476,0-.85.107-1.121.322-.271.205-.456.513-.559.924l-1.526-.098c.14-.747.485-1.335,1.036-1.764.56-.43,1.283-.644,2.17-.644c1.008,0,1.773.27,2.296.812.532.532.798,1.283.798,2.254v2.898c0,.177.028.303.084.378.065.065.168.098.308.098h.266v1.176c-.047.009-.121.018-.224.028-.103.009-.21.014-.322.014-.317,0-.594-.052-.827-.154-.224-.103-.391-.271-.503-.504-.112-.243-.168-.565-.168-.966l.154.07c-.075.326-.238.616-.49.868-.243.252-.555.452-.938.602-.373.14-.78.21-1.219.21Zm.239-1.176c.448,0,.831-.084,1.148-.252.317-.178.565-.42.742-.728s.266-.658.266-1.05v-.476l-2.184.42c-.448.084-.765.219-.952.406-.177.177-.266.406-.266.686c0,.317.107.564.322.742.224.168.532.252.924.252Zm6.903,1.008l-2.716-7.448h1.582l2.03,5.936l2.03-5.936h1.596l-2.73,7.448h-1.792Zm7.324.168c-.774,0-1.395-.178-1.862-.532-.457-.355-.686-.854-.686-1.498s.192-1.144.574-1.498c.392-.364.994-.626,1.806-.784l2.562-.49c0-.579-.136-1.008-.407-1.288-.27-.29-.671-.434-1.203-.434-.476,0-.849.107-1.12.322-.27.205-.458.513-.561.924l-1.525-.098c.14-.747.486-1.335,1.036-1.764.56-.43,1.284-.644,2.17-.644c1.008,0,1.774.27,2.296.812.532.532.798,1.283.798,2.254v2.898c0,.177.027.303.083.378.066.065.169.098.309.098h.266v1.176c-.046.009-.121.018-.224.028-.102.009-.21.014-.322.014-.317,0-.592-.052-.826-.154-.224-.103-.393-.271-.505-.504-.112-.243-.168-.565-.168-.966l.155.07c-.074.326-.239.616-.491.868-.242.252-.554.452-.937.602-.373.14-.779.21-1.218.21Zm.237-1.176c.449,0,.832-.084,1.149-.252.318-.178.565-.42.742-.728.178-.308.266-.658.266-1.05v-.476l-2.184.42c-.448.084-.765.219-.952.406-.177.177-.267.406-.267.686c0,.317.109.564.323.742.224.168.532.252.923.252Zm8.088,1.176c-.7,0-1.293-.108-1.778-.322-.476-.215-.845-.509-1.106-.882-.262-.383-.411-.822-.448-1.316l1.526-.07c.074.41.252.737.532.98.28.242.704.364,1.274.364.466,0,.835-.075,1.106-.224.27-.15.405-.388.405-.714c0-.178-.046-.327-.139-.448-.084-.131-.252-.238-.504-.322-.252-.094-.626-.182-1.12-.266-.738-.14-1.317-.304-1.737-.49-.42-.187-.718-.425-.895-.714-.178-.29-.266-.64-.266-1.05c0-.682.252-1.237.756-1.666.513-.43,1.249-.644,2.211-.644.644,0,1.186.112,1.625.336.438.214.779.508,1.022.882.252.364.41.774.476,1.232l-1.526.084c-.047-.262-.14-.486-.28-.672-.131-.196-.308-.346-.532-.448-.224-.112-.49-.168-.798-.168-.476,0-.831.093-1.064.28-.234.186-.35.429-.35.728c0,.224.051.406.154.546.112.14.289.256.532.35.242.084.563.158.965.224.774.13,1.382.294,1.821.49.438.186.746.42.924.7.177.28.266.62.266,1.022c0,.466-.131.863-.392,1.19-.262.326-.621.578-1.078.756-.458.168-.985.252-1.582.252Zm7.339,0c-.709,0-1.33-.159-1.862-.476-.532-.318-.942-.77-1.232-1.358-.289-.588-.434-1.274-.434-2.058s.145-1.466.434-2.044c.29-.588.7-1.041,1.232-1.358.532-.327,1.153-.49,1.862-.49.607,0,1.144.107,1.61.322.476.205.859.508,1.148.91.299.401.49.891.574,1.47l-1.554.084c-.074-.486-.271-.854-.589-1.106-.317-.262-.713-.392-1.189-.392-.625,0-1.115.233-1.47.7-.345.457-.518,1.092-.518,1.904s.173,1.451.518,1.918c.355.457.845.686,1.47.686.476,0,.872-.131,1.189-.392.318-.271.515-.677.589-1.218l1.554.084c-.084.569-.275,1.064-.574,1.484-.289.42-.672.746-1.148.98-.466.233-1.003.35-1.61.35Zm4.406-.168v-7.448h1.358l.056,1.974-.126-.042c.103-.672.308-1.162.616-1.47.318-.308.742-.462,1.274-.462h.713v1.33h-.713c-.373,0-.686.06-.938.182-.252.121-.443.308-.574.56-.121.252-.182.578-.182.98v4.396h-1.484Zm4.834,0v-7.448h1.484v7.448h-1.484Zm-.028-8.526v-1.484h1.54v1.484h-1.54Zm3.453,10.626v-9.548h1.399l.043,1.596-.168-.084c.186-.551.494-.966.924-1.246.429-.29.924-.434,1.484-.434.728,0,1.325.182,1.792.546.476.354.826.826,1.05,1.414.233.588.35,1.232.35,1.932s-.117,1.344-.35,1.932c-.224.588-.574,1.064-1.05,1.428-.467.354-1.064.532-1.792.532-.374,0-.724-.066-1.05-.196-.327-.131-.607-.313-.84-.546-.224-.243-.383-.528-.476-.854l.168-.168v3.696h-1.484Zm3.416-3.22c.597,0,1.064-.229,1.4-.686.345-.458.518-1.097.518-1.918c0-.822-.173-1.461-.518-1.918-.336-.458-.803-.686-1.4-.686-.392,0-.733.098-1.022.294-.29.186-.514.476-.672.868-.159.392-.238.872-.238,1.442c0,.569.074,1.05.224,1.442.158.392.382.686.672.882.298.186.644.28,1.036.28Zm7.267,1.12c-.709,0-1.232-.164-1.568-.49-.336-.327-.504-.836-.504-1.526v-7.182h1.484v7.07c0,.345.075.583.224.714.15.13.378.196.686.196h1.064v1.218h-1.386Zm-3.206-6.23v-1.218h4.592v1.218h-4.592Z" fill="#ff4fae"/><path id="ePH6Ulaq5XZ50" d="M140.875,318.763l-6.314-2.926v-1.148l6.314-2.926v.924l-5.74,2.646v-.14l5.74,2.646v.924Zm1.54-2.31c-.018-.354-.042-.751-.07-1.19-.028-.438-.051-.882-.07-1.33-.018-.448-.028-.858-.028-1.232v-3.318h.952v3.318c0,.374-.009.784-.028,1.232-.018.448-.042.892-.07,1.33-.028.439-.051.836-.07,1.19h-.616Zm-.392,2.87v-1.358h1.33v1.358h-1.33Zm3.07,0v-9.94h2.996c1.512,0,2.674.434,3.486,1.302.821.859,1.232,2.086,1.232,3.682c0,1.587-.402,2.81-1.204,3.668-.803.859-1.946,1.288-3.43,1.288h-3.08Zm.952-.924h2.044c1.222,0,2.146-.34,2.772-1.022.634-.681.952-1.684.952-3.01c0-1.344-.318-2.356-.952-3.038-.626-.681-1.55-1.022-2.772-1.022h-2.044v8.092Zm12.255,1.148c-.924,0-1.722-.205-2.394-.616-.662-.42-1.171-1.017-1.526-1.792-.354-.774-.532-1.698-.532-2.772c0-1.073.178-1.997.532-2.772.355-.784.864-1.386,1.526-1.806.672-.42,1.47-.63,2.394-.63.934,0,1.732.21,2.394.63.663.42,1.172,1.022,1.526,1.806.364.775.546,1.699.546,2.772c0,1.074-.182,1.998-.546,2.772-.354.775-.863,1.372-1.526,1.792-.662.411-1.46.616-2.394.616Zm0-.938c.728,0,1.349-.168,1.862-.504.514-.336.91-.821,1.19-1.456.28-.634.42-1.395.42-2.282c0-.886-.14-1.647-.42-2.282-.28-.644-.676-1.134-1.19-1.47-.513-.345-1.134-.518-1.862-.518-.718,0-1.339.173-1.862.518-.513.336-.91.826-1.19,1.47-.27.635-.406,1.396-.406,2.282c0,.887.136,1.648.406,2.282.28.635.677,1.12,1.19,1.456.523.336,1.144.504,1.862.504Zm9.877.938c-.878,0-1.648-.205-2.31-.616-.654-.42-1.162-1.017-1.526-1.792-.355-.774-.532-1.698-.532-2.772c0-1.073.177-1.997.532-2.772.364-.784.872-1.386,1.526-1.806.662-.42,1.432-.63,2.31-.63c1.157,0,2.067.308,2.73.924.662.616,1.092,1.442,1.288,2.478l-1.008.07c-.14-.774-.462-1.39-.966-1.848-.495-.457-1.176-.686-2.044-.686-.682,0-1.274.173-1.778.518-.504.336-.896.826-1.176,1.47-.28.635-.42,1.396-.42,2.282c0,.887.14,1.648.42,2.282.28.635.672,1.12,1.176,1.456s1.096.504,1.778.504c.905,0,1.614-.247,2.128-.742.522-.494.844-1.166.966-2.016l1.008.07c-.112.728-.346,1.363-.7,1.904-.355.542-.817.966-1.386,1.274-.57.299-1.242.448-2.016.448Zm7.583-.224v-9.016h-3.192v-.924h7.336v.924h-3.192v9.016h-.952Zm7.597,0v-4.06l-3.542-5.88h1.134l2.884,4.914l2.884-4.914h1.134l-3.542,5.88v4.06h-.952Zm5.179,0v-9.94h3.486c1.092,0,1.942.266,2.548.798.616.523.924,1.246.924,2.17c0,.607-.14,1.134-.42,1.582-.27.448-.667.794-1.19,1.036-.513.234-1.134.35-1.862.35h-2.534v4.004h-.952Zm.952-4.928h2.534c.812,0,1.424-.172,1.834-.518.42-.345.63-.854.63-1.526s-.21-1.18-.63-1.526c-.41-.345-1.022-.518-1.834-.518h-2.534v4.088Zm7.436,4.928v-9.94h6.118v.924h-5.166v3.584h4.998v.91h-4.998v3.598h5.278v.924h-6.23Zm11.057,0v-9.94h1.176v4.158l-.14-.028c.093-.41.252-.746.476-1.008.224-.261.499-.452.826-.574.327-.13.686-.196,1.078-.196.532,0,.98.122,1.344.364.373.234.653.565.84.994.196.42.294.906.294,1.456v4.774h-1.176v-4.438c0-.718-.131-1.25-.392-1.596-.252-.345-.639-.518-1.162-.518-.597,0-1.078.182-1.442.546s-.546.892-.546,1.582v4.424h-1.176Zm10.01,0c-.672,0-1.171-.154-1.498-.462-.317-.308-.476-.788-.476-1.442v-7.252h1.176v7.224c0,.336.075.57.224.7.15.131.378.196.686.196h1.064v1.036h-1.176Zm-3.066-6.384v-1.036h4.242v1.036h-4.242Zm5.621,6.384v-7.42h1.078l.042,1.876-.168-.056c.084-.41.229-.76.434-1.05.215-.298.476-.527.784-.686.308-.168.649-.252,1.022-.252.644,0,1.167.178,1.568.532.411.355.667.85.77,1.484l-.224-.014c.075-.429.21-.788.406-1.078.205-.298.467-.527.784-.686.317-.158.681-.238,1.092-.238.532,0,.98.112,1.344.336.364.215.639.532.826.952s.28.929.28,1.526v4.774h-1.176v-4.522c0-.672-.131-1.176-.392-1.512-.261-.345-.649-.518-1.162-.518-.345,0-.649.084-.91.252-.252.168-.448.411-.588.728-.14.308-.21.686-.21,1.134v4.438h-1.176v-4.438c0-.662-.117-1.18-.35-1.554-.233-.373-.625-.56-1.176-.56-.345,0-.649.084-.91.252-.252.168-.453.411-.602.728-.14.318-.21.696-.21,1.134v4.438h-1.176Zm13.248,0c-.429,0-.779-.112-1.05-.336-.27-.224-.406-.578-.406-1.064v-8.54h1.176v8.442c0,.15.038.266.112.35.084.075.201.112.35.112h.644v1.036h-.826Zm1.577-.448v-1.176l5.572-2.492v.14l-5.572-2.492v-1.176l6.356,2.856v1.484l-6.356,2.856Z" opacity="0" fill="#ff4fae"/><path id="ePH6Ulaq5XZ51" d="M140.917,338.875l-6.356-2.856v-1.484l6.356-2.856v1.176l-5.572,2.492v-.14l5.572,2.492v1.176Zm1.539.448v-9.94h1.176v4.158l-.14-.028c.094-.41.252-.746.476-1.008.224-.261.5-.452.826-.574.327-.13.686-.196,1.078-.196.532,0,.98.122,1.344.364.374.234.654.565.84.994.196.42.294.906.294,1.456v4.774h-1.176v-4.438c0-.718-.13-1.25-.392-1.596-.252-.345-.639-.518-1.162-.518-.597,0-1.078.182-1.442.546s-.546.892-.546,1.582v4.424h-1.176Zm10.01,0c-.672,0-1.171-.154-1.498-.462-.317-.308-.476-.788-.476-1.442v-7.252h1.176v7.224c0,.336.075.57.224.7.15.131.378.196.686.196h1.064v1.036h-1.176Zm-3.066-6.384v-1.036h4.242v1.036h-4.242Zm5.621,6.384v-7.42h1.078l.042,1.876-.168-.056c.084-.41.229-.76.434-1.05.215-.298.476-.527.784-.686.308-.168.649-.252,1.022-.252.644,0,1.167.178,1.568.532.411.355.668.85.77,1.484l-.224-.014c.075-.429.21-.788.406-1.078.206-.298.467-.527.784-.686.318-.158.682-.238,1.092-.238.532,0,.98.112,1.344.336.364.215.64.532.826.952.187.42.28.929.28,1.526v4.774h-1.176v-4.522c0-.672-.13-1.176-.392-1.512-.261-.345-.648-.518-1.162-.518-.345,0-.648.084-.91.252-.252.168-.448.411-.588.728-.14.308-.21.686-.21,1.134v4.438h-1.176v-4.438c0-.662-.116-1.18-.35-1.554-.233-.373-.625-.56-1.176-.56-.345,0-.648.084-.91.252-.252.168-.452.411-.602.728-.14.318-.21.696-.21,1.134v4.438h-1.176Zm13.248,0c-.429,0-.779-.112-1.05-.336-.27-.224-.406-.578-.406-1.064v-8.54h1.176v8.442c0,.15.038.266.112.35.084.075.201.112.35.112h.644v1.036h-.826Zm6.673,0c-.429,0-.779-.112-1.05-.336s-.406-.578-.406-1.064v-8.54h1.176v8.442c0,.15.037.266.112.35.084.075.201.112.35.112h.644v1.036h-.826Zm3.998.168c-.765,0-1.376-.177-1.834-.532-.448-.354-.672-.849-.672-1.484c0-.634.187-1.134.56-1.498.374-.364.966-.62,1.778-.77l2.632-.49c0-.625-.149-1.092-.448-1.4-.289-.308-.728-.462-1.316-.462-.513,0-.919.117-1.218.35-.298.224-.504.551-.616.98l-1.246-.098c.14-.7.476-1.264,1.008-1.694.542-.438,1.232-.658,2.072-.658.952,0,1.68.271,2.184.812.504.532.756,1.27.756,2.212v3.066c0,.168.028.29.084.364.066.066.168.098.308.098h.294v1.036c-.037.01-.098.014-.182.014-.084.01-.172.014-.266.014-.336,0-.611-.051-.826-.154-.205-.112-.354-.28-.448-.504-.093-.233-.14-.536-.14-.91l.14.028c-.065.318-.224.607-.476.868-.252.252-.564.453-.938.602-.373.14-.77.21-1.19.21Zm.112-1.036c.495,0,.915-.093,1.26-.28.355-.196.626-.457.812-.784.187-.336.28-.709.28-1.12v-.532l-2.408.448c-.504.094-.854.238-1.05.434-.186.187-.28.434-.28.742c0,.346.122.616.364.812.252.187.593.28,1.022.28Zm5.263.868v-7.42h1.078l.042,1.89-.14-.126c.093-.438.256-.798.49-1.078.233-.289.513-.504.84-.644.336-.14.695-.21,1.078-.21.569,0,1.036.126,1.4.378.373.252.648.593.826,1.022.186.42.28.892.28,1.414v4.774h-1.176v-4.438c0-.457-.056-.84-.168-1.148-.103-.317-.271-.555-.504-.714-.234-.168-.537-.252-.91-.252-.57,0-1.041.182-1.414.546-.364.355-.546.878-.546,1.568v4.438h-1.176Zm10.504,2.268c-.532,0-1.012-.088-1.442-.266-.429-.177-.788-.429-1.078-.756-.289-.326-.485-.704-.588-1.134l1.232-.084c.112.346.308.616.588.812.29.206.719.308,1.288.308.672,0,1.186-.135,1.54-.406.364-.27.546-.676.546-1.218v-1.204c-.177.392-.462.705-.854.938-.392.234-.83.35-1.316.35-.625,0-1.185-.154-1.68-.462-.485-.308-.868-.732-1.148-1.274-.27-.541-.406-1.162-.406-1.862c0-.709.136-1.33.406-1.862.271-.541.644-.966,1.12-1.274.486-.308,1.036-.462,1.652-.462.523,0,.99.122,1.4.364.42.243.714.57.882.98v-1.176h1.12v6.916c0,.579-.13,1.074-.392,1.484-.261.42-.634.738-1.12.952-.485.224-1.068.336-1.75.336Zm-.028-3.78c.635,0,1.144-.219,1.526-.658.383-.448.579-1.054.588-1.82.01-.513-.074-.952-.252-1.316-.168-.373-.415-.658-.742-.854-.317-.205-.69-.308-1.12-.308-.653,0-1.162.224-1.526.672-.354.439-.532,1.041-.532,1.806c0,.766.182,1.372.546,1.82.374.439.878.658,1.512.658Zm4.687-3.57v-1.092h6.44v1.092h-6.44Zm0,2.884v-1.092h6.44v1.092h-6.44Zm7.63-4.018l-.28-2.604v-1.12h1.232l-.084,3.724h-.868Zm2.156,0l-.084-3.724h1.232v1.12l-.28,2.604h-.868Zm5.375,6.384c-.7,0-1.306-.158-1.82-.476-.504-.317-.896-.765-1.176-1.344-.27-.588-.406-1.274-.406-2.058s.136-1.465.406-2.044c.28-.578.668-1.026,1.162-1.344.504-.326,1.097-.49,1.778-.49.644,0,1.214.154,1.708.462.495.299.878.738,1.148,1.316.28.579.42,1.284.42,2.114v.35h-5.39c.047.794.257,1.391.63,1.792.383.402.896.602,1.54.602.486,0,.882-.112,1.19-.336.318-.233.537-.536.658-.91l1.26.098c-.196.663-.569,1.209-1.12,1.638-.541.42-1.204.63-1.988.63Zm-2.17-4.55h4.102c-.056-.718-.266-1.246-.63-1.582-.354-.336-.807-.504-1.358-.504-.569,0-1.04.178-1.414.532-.364.346-.597.864-.7,1.554Zm6.703,4.382v-7.42h1.078l.042,1.89-.14-.126c.094-.438.257-.798.49-1.078.234-.289.514-.504.84-.644.336-.14.696-.21,1.078-.21.57,0,1.036.126,1.4.378.374.252.649.593.826,1.022.187.42.28.892.28,1.414v4.774h-1.176v-4.438c0-.457-.056-.84-.168-1.148-.102-.317-.27-.555-.504-.714-.233-.168-.536-.252-.91-.252-.569,0-1.04.182-1.414.546-.364.355-.546.878-.546,1.568v4.438h-1.176Zm7.645-6.216l-.28-2.604v-1.12h1.232l-.084,3.724h-.868Zm2.156,0l-.084-3.724h1.232v1.12l-.28,2.604h-.868Zm2.194,5.768v-1.176l5.572-2.492v.14l-5.572-2.492v-1.176l6.356,2.856v1.484l-6.356,2.856Z" opacity="0" fill="#020817"/><path id="ePH6Ulaq5XZ52" d="M140.917,358.875l-6.356-2.856v-1.484l6.356-2.856v1.176l-5.572,2.492v-.14l5.572,2.492v1.176Zm1.539.448v-9.94h1.176v4.158l-.14-.028c.094-.41.252-.746.476-1.008.224-.261.5-.452.826-.574.327-.13.686-.196,1.078-.196.532,0,.98.122,1.344.364.374.234.654.565.84.994.196.42.294.906.294,1.456v4.774h-1.176v-4.438c0-.718-.13-1.25-.392-1.596-.252-.345-.639-.518-1.162-.518-.597,0-1.078.182-1.442.546s-.546.892-.546,1.582v4.424h-1.176Zm10.589.168c-.7,0-1.307-.158-1.82-.476-.504-.317-.896-.765-1.176-1.344-.271-.588-.406-1.274-.406-2.058s.135-1.465.406-2.044c.28-.578.667-1.026,1.162-1.344.504-.326,1.097-.49,1.778-.49.644,0,1.213.154,1.708.462.495.299.877.738,1.148,1.316.28.579.42,1.284.42,2.114v.35h-5.39c.047.794.257,1.391.63,1.792.383.402.896.602,1.54.602.485,0,.882-.112,1.19-.336.317-.233.537-.536.658-.91l1.26.098c-.196.663-.569,1.209-1.12,1.638-.541.42-1.204.63-1.988.63Zm-2.17-4.55h4.102c-.056-.718-.266-1.246-.63-1.582-.355-.336-.807-.504-1.358-.504-.569,0-1.041.178-1.414.532-.364.346-.597.864-.7,1.554Zm8.896,4.55c-.765,0-1.376-.177-1.834-.532-.448-.354-.672-.849-.672-1.484c0-.634.187-1.134.56-1.498.374-.364.966-.62,1.778-.77l2.632-.49c0-.625-.149-1.092-.448-1.4-.289-.308-.728-.462-1.316-.462-.513,0-.919.117-1.218.35-.298.224-.504.551-.616.98l-1.246-.098c.14-.7.476-1.264,1.008-1.694.542-.438,1.232-.658,2.072-.658.952,0,1.68.271,2.184.812.504.532.756,1.27.756,2.212v3.066c0,.168.028.29.084.364.066.066.168.098.308.098h.294v1.036c-.037.01-.098.014-.182.014-.084.01-.172.014-.266.014-.336,0-.611-.051-.826-.154-.205-.112-.354-.28-.448-.504-.093-.233-.14-.536-.14-.91l.14.028c-.065.318-.224.607-.476.868-.252.252-.564.453-.938.602-.373.14-.77.21-1.19.21Zm.112-1.036c.495,0,.915-.093,1.26-.28.355-.196.626-.457.812-.784.187-.336.28-.709.28-1.12v-.532l-2.408.448c-.504.094-.854.238-1.05.434-.186.187-.28.434-.28.742c0,.346.122.616.364.812.252.187.593.28,1.022.28Zm7.867,1.036c-.644,0-1.204-.158-1.68-.476-.466-.317-.826-.765-1.078-1.344-.252-.578-.378-1.264-.378-2.058c0-.793.126-1.479.378-2.058.252-.578.612-1.026,1.078-1.344.476-.317,1.036-.476,1.68-.476.495,0,.948.108,1.358.322.411.206.719.5.924.882v-3.556h1.176v9.94h-1.064l-.042-1.12c-.205.402-.518.719-.938.952-.42.224-.891.336-1.414.336Zm.238-1.12c.439,0,.808-.112,1.106-.336.308-.224.542-.541.7-.952.159-.42.238-.91.238-1.47c0-.578-.079-1.073-.238-1.484-.158-.41-.392-.723-.7-.938-.298-.224-.667-.336-1.106-.336-.653,0-1.176.248-1.568.742-.382.486-.574,1.158-.574,2.016c0,.85.192,1.522.574,2.016.392.495.915.742,1.568.742Zm4.756.504v-1.176l5.572-2.492v.14l-5.572-2.492v-1.176l6.356,2.856v1.484l-6.356,2.856Z" opacity="0" fill="#020817"/><path id="ePH6Ulaq5XZ53" d="M152.917,378.875l-6.356-2.856v-1.484l6.356-2.856v1.176l-5.572,2.492v-.14l5.572,2.492v1.176Zm1.539.448v-7.42h1.078l.042,1.876-.168-.056c.084-.41.229-.76.434-1.05.215-.298.476-.527.784-.686.308-.168.649-.252,1.022-.252.644,0,1.167.178,1.568.532.411.355.668.85.77,1.484l-.224-.014c.075-.429.21-.788.406-1.078.206-.298.467-.527.784-.686.318-.158.682-.238,1.092-.238.532,0,.98.112,1.344.336.364.215.64.532.826.952.187.42.28.929.28,1.526v4.774h-1.176v-4.522c0-.672-.13-1.176-.392-1.512-.261-.345-.648-.518-1.162-.518-.345,0-.648.084-.91.252-.252.168-.448.411-.588.728-.14.308-.21.686-.21,1.134v4.438h-1.176v-4.438c0-.662-.116-1.18-.35-1.554-.233-.373-.625-.56-1.176-.56-.345,0-.648.084-.91.252-.252.168-.452.411-.602.728-.14.318-.21.696-.21,1.134v4.438h-1.176Zm14.732.168c-.7,0-1.307-.158-1.82-.476-.504-.317-.896-.765-1.176-1.344-.271-.588-.406-1.274-.406-2.058s.135-1.465.406-2.044c.28-.578.667-1.026,1.162-1.344.504-.326,1.096-.49,1.778-.49.644,0,1.213.154,1.708.462.494.299.877.738,1.148,1.316.28.579.42,1.284.42,2.114v.35h-5.39c.046.794.256,1.391.63,1.792.382.402.896.602,1.54.602.485,0,.882-.112,1.19-.336.317-.233.536-.536.658-.91l1.26.098c-.196.663-.57,1.209-1.12,1.638-.542.42-1.204.63-1.988.63Zm-2.17-4.55h4.102c-.056-.718-.266-1.246-.63-1.582-.355-.336-.808-.504-1.358-.504-.57,0-1.041.178-1.414.532-.364.346-.598.864-.7,1.554Zm9.131,4.382c-.672,0-1.171-.154-1.498-.462-.317-.308-.476-.788-.476-1.442v-7.252h1.176v7.224c0,.336.075.57.224.7.15.131.378.196.686.196h1.064v1.036h-1.176Zm-3.066-6.384v-1.036h4.242v1.036h-4.242Zm7.418,6.552c-.765,0-1.377-.177-1.834-.532-.448-.354-.672-.849-.672-1.484c0-.634.187-1.134.56-1.498s.966-.62,1.778-.77l2.632-.49c0-.625-.149-1.092-.448-1.4-.289-.308-.728-.462-1.316-.462-.513,0-.919.117-1.218.35-.299.224-.504.551-.616.98l-1.246-.098c.14-.7.476-1.264,1.008-1.694.541-.438,1.232-.658,2.072-.658.952,0,1.68.271,2.184.812.504.532.756,1.27.756,2.212v3.066c0,.168.028.29.084.364.065.066.168.098.308.098h.294v1.036c-.037.01-.098.014-.182.014-.084.01-.173.014-.266.014-.336,0-.611-.051-.826-.154-.205-.112-.355-.28-.448-.504-.093-.233-.14-.536-.14-.91l.14.028c-.065.318-.224.607-.476.868-.252.252-.565.453-.938.602-.373.14-.77.21-1.19.21Zm.112-1.036c.495,0,.915-.093,1.26-.28.355-.196.625-.457.812-.784.187-.336.28-.709.28-1.12v-.532l-2.408.448c-.504.094-.854.238-1.05.434-.187.187-.28.434-.28.742c0,.346.121.616.364.812.252.187.593.28,1.022.28Zm11.435,1.036c-.691,0-1.293-.158-1.806-.476-.504-.317-.896-.765-1.176-1.344-.28-.588-.42-1.274-.42-2.058s.14-1.465.42-2.044c.28-.578.672-1.026,1.176-1.344.513-.326,1.115-.49,1.806-.49.569,0,1.073.103,1.512.308.448.196.812.486,1.092.868.28.383.462.85.546,1.4l-1.232.084c-.084-.494-.299-.872-.644-1.134-.345-.27-.77-.406-1.274-.406-.681,0-1.213.248-1.596.742-.383.486-.574,1.158-.574,2.016c0,.859.191,1.536.574,2.03.383.486.915.728,1.596.728.504,0,.929-.14,1.274-.42s.56-.7.644-1.26l1.232.084c-.084.551-.266,1.032-.546,1.442-.28.402-.644.714-1.092.938-.439.224-.943.336-1.512.336Zm4.328-.168v-9.94h1.176v4.158l-.14-.028c.093-.41.252-.746.476-1.008.224-.261.499-.452.826-.574.327-.13.686-.196,1.078-.196.532,0,.98.122,1.344.364.373.234.653.565.84.994.196.42.294.906.294,1.456v4.774h-1.176v-4.438c0-.718-.131-1.25-.392-1.596-.252-.345-.639-.518-1.162-.518-.597,0-1.078.182-1.442.546s-.546.892-.546,1.582v4.424h-1.176Zm9.72.168c-.765,0-1.377-.177-1.834-.532-.448-.354-.672-.849-.672-1.484c0-.634.187-1.134.56-1.498s.966-.62,1.778-.77l2.632-.49c0-.625-.149-1.092-.448-1.4-.289-.308-.728-.462-1.316-.462-.513,0-.919.117-1.218.35-.299.224-.504.551-.616.98l-1.246-.098c.14-.7.476-1.264,1.008-1.694.541-.438,1.232-.658,2.072-.658.952,0,1.68.271,2.184.812.504.532.756,1.27.756,2.212v3.066c0,.168.028.29.084.364.065.066.168.098.308.098h.294v1.036c-.037.01-.098.014-.182.014-.084.01-.173.014-.266.014-.336,0-.611-.051-.826-.154-.205-.112-.355-.28-.448-.504-.093-.233-.14-.536-.14-.91l.14.028c-.065.318-.224.607-.476.868-.252.252-.565.453-.938.602-.373.14-.77.21-1.19.21Zm.112-1.036c.495,0,.915-.093,1.26-.28.355-.196.625-.457.812-.784.187-.336.28-.709.28-1.12v-.532l-2.408.448c-.504.094-.854.238-1.05.434-.187.187-.28.434-.28.742c0,.346.121.616.364.812.252.187.593.28,1.022.28Zm5.262.868v-7.42h1.036l.056,1.876-.112-.042c.093-.634.294-1.096.602-1.386.317-.298.737-.448,1.26-.448h.728v1.12h-.714c-.373,0-.686.07-.938.21-.243.131-.429.332-.56.602-.121.262-.182.598-.182,1.008v4.48h-1.176Zm7.166.168c-.662,0-1.227-.107-1.694-.322-.457-.214-.816-.508-1.078-.882-.252-.382-.396-.816-.434-1.302l1.232-.084c.075.448.266.808.574,1.078.308.262.775.392,1.4.392.504,0,.906-.079,1.204-.238.308-.168.462-.434.462-.798c0-.196-.046-.359-.14-.49-.093-.13-.275-.242-.546-.336-.27-.102-.672-.2-1.204-.294-.709-.13-1.269-.289-1.68-.476-.401-.196-.69-.434-.868-.714-.168-.289-.252-.63-.252-1.022c0-.662.243-1.204.728-1.624.486-.429,1.176-.644,2.072-.644.607,0,1.116.112,1.526.336.42.215.747.504.98.868.243.355.402.747.476,1.176l-1.232.084c-.056-.261-.158-.49-.308-.686-.149-.205-.345-.364-.588-.476-.242-.121-.532-.182-.868-.182-.532,0-.924.103-1.176.308-.252.206-.378.467-.378.784c0,.243.056.444.168.602.122.15.313.276.574.378.262.094.612.178,1.05.252.756.131,1.344.29,1.764.476.42.187.714.416.882.686.168.271.252.602.252.994c0,.458-.13.85-.392,1.176-.252.318-.597.56-1.036.728-.429.168-.919.252-1.47.252Zm7.121,0c-.7,0-1.306-.158-1.82-.476-.504-.317-.896-.765-1.176-1.344-.27-.588-.406-1.274-.406-2.058s.136-1.465.406-2.044c.28-.578.668-1.026,1.162-1.344.504-.326,1.097-.49,1.778-.49.644,0,1.214.154,1.708.462.495.299.878.738,1.148,1.316.28.579.42,1.284.42,2.114v.35h-5.39c.047.794.257,1.391.63,1.792.383.402.896.602,1.54.602.486,0,.882-.112,1.19-.336.318-.233.537-.536.658-.91l1.26.098c-.196.663-.569,1.209-1.12,1.638-.541.42-1.204.63-1.988.63Zm-2.17-4.55h4.102c-.056-.718-.266-1.246-.63-1.582-.354-.336-.807-.504-1.358-.504-.569,0-1.04.178-1.414.532-.364.346-.597.864-.7,1.554Zm9.132,4.382c-.672,0-1.171-.154-1.498-.462-.317-.308-.476-.788-.476-1.442v-7.252h1.176v7.224c0,.336.075.57.224.7.15.131.378.196.686.196h1.064v1.036h-1.176Zm-3.066-6.384v-1.036h4.242v1.036h-4.242Zm4.993,1.302v-1.092h6.44v1.092h-6.44Zm0,2.884v-1.092h6.44v1.092h-6.44Zm7.63-4.018l-.28-2.604v-1.12h1.232l-.084,3.724h-.868Zm2.156,0l-.084-3.724h1.232v1.12l-.28,2.604h-.868Zm6.324,6.44c-.765,0-1.433-.149-2.002-.448-.56-.298-.994-.723-1.302-1.274-.299-.56-.448-1.218-.448-1.974v-6.482h1.204v6.482c0,.803.219,1.424.658,1.862.448.439,1.078.658,1.89.658.803,0,1.423-.219,1.862-.658.448-.438.672-1.059.672-1.862v-6.482h1.204v6.482c0,.756-.154,1.414-.462,1.974-.299.551-.728.976-1.288,1.274-.56.299-1.223.448-1.988.448Zm7.804-.224v-8.764h-3.094v-1.176h7.392v1.176h-3.094v8.764h-1.204Zm5.047,0v-9.94h6.244v1.176h-5.642l.602-.616v4.564l-.602-.616h5.39v1.148h-5.39l.602-.616v4.9h-1.204Zm7.306-3.528v-1.106h4.634v1.106h-4.634Zm9.197,3.752c-.709,0-1.344-.112-1.904-.336-.551-.224-.985-.555-1.302-.994-.308-.438-.462-.98-.462-1.624c0-.718.215-1.311.644-1.778.429-.476.999-.798,1.708-.966l.028.28c-.569-.158-1.031-.415-1.386-.77-.345-.364-.518-.854-.518-1.47c0-.522.131-.989.392-1.4.271-.41.644-.732,1.12-.966.476-.242,1.036-.364,1.68-.364s1.204.122,1.68.364c.485.234.859.556,1.12.966.261.411.392.878.392,1.4c0,.616-.173,1.106-.518,1.47-.345.355-.807.612-1.386.77l.028-.28c.719.168,1.288.49,1.708.966.429.467.644,1.06.644,1.778c0,.644-.159,1.186-.476,1.624-.308.439-.737.77-1.288.994s-1.185.336-1.904.336Zm0-1.176c.737,0,1.321-.149,1.75-.448.439-.308.658-.774.658-1.4c0-.578-.196-1.04-.588-1.386-.383-.354-.989-.532-1.82-.532-.821,0-1.428.178-1.82.532-.392.346-.588.808-.588,1.386c0,.626.215,1.092.644,1.4.439.299,1.027.448,1.764.448Zm0-4.886c.616,0,1.092-.13,1.428-.392.336-.27.504-.672.504-1.204c0-.476-.163-.854-.49-1.134s-.807-.42-1.442-.42c-.625,0-1.106.14-1.442.42-.327.28-.49.658-.49,1.134c0,.532.168.934.504,1.204.336.262.812.392,1.428.392Zm4.851-.378l-.28-2.604v-1.12h1.232l-.084,3.724h-.868Zm2.156,0l-.084-3.724h1.232v1.12l-.28,2.604h-.868Zm2.194,5.768v-1.176l5.572-2.492v.14l-5.572-2.492v-1.176l6.356,2.856v1.484l-6.356,2.856Z" opacity="0" fill="#020817"/><path id="ePH6Ulaq5XZ54" d="M152.917,398.875l-6.356-2.856v-1.484l6.356-2.856v1.176l-5.572,2.492v-.14l5.572,2.492v1.176Zm1.539.448v-7.42h1.078l.042,1.876-.168-.056c.084-.41.229-.76.434-1.05.215-.298.476-.527.784-.686.308-.168.649-.252,1.022-.252.644,0,1.167.178,1.568.532.411.355.668.85.77,1.484l-.224-.014c.075-.429.21-.788.406-1.078.206-.298.467-.527.784-.686.318-.158.682-.238,1.092-.238.532,0,.98.112,1.344.336.364.215.64.532.826.952.187.42.28.929.28,1.526v4.774h-1.176v-4.522c0-.672-.13-1.176-.392-1.512-.261-.345-.648-.518-1.162-.518-.345,0-.648.084-.91.252-.252.168-.448.411-.588.728-.14.308-.21.686-.21,1.134v4.438h-1.176v-4.438c0-.662-.116-1.18-.35-1.554-.233-.373-.625-.56-1.176-.56-.345,0-.648.084-.91.252-.252.168-.452.411-.602.728-.14.318-.21.696-.21,1.134v4.438h-1.176Zm14.732.168c-.7,0-1.307-.158-1.82-.476-.504-.317-.896-.765-1.176-1.344-.271-.588-.406-1.274-.406-2.058s.135-1.465.406-2.044c.28-.578.667-1.026,1.162-1.344.504-.326,1.096-.49,1.778-.49.644,0,1.213.154,1.708.462.494.299.877.738,1.148,1.316.28.579.42,1.284.42,2.114v.35h-5.39c.046.794.256,1.391.63,1.792.382.402.896.602,1.54.602.485,0,.882-.112,1.19-.336.317-.233.536-.536.658-.91l1.26.098c-.196.663-.57,1.209-1.12,1.638-.542.42-1.204.63-1.988.63Zm-2.17-4.55h4.102c-.056-.718-.266-1.246-.63-1.582-.355-.336-.808-.504-1.358-.504-.57,0-1.041.178-1.414.532-.364.346-.598.864-.7,1.554Zm9.131,4.382c-.672,0-1.171-.154-1.498-.462-.317-.308-.476-.788-.476-1.442v-7.252h1.176v7.224c0,.336.075.57.224.7.15.131.378.196.686.196h1.064v1.036h-1.176Zm-3.066-6.384v-1.036h4.242v1.036h-4.242Zm7.418,6.552c-.765,0-1.377-.177-1.834-.532-.448-.354-.672-.849-.672-1.484c0-.634.187-1.134.56-1.498s.966-.62,1.778-.77l2.632-.49c0-.625-.149-1.092-.448-1.4-.289-.308-.728-.462-1.316-.462-.513,0-.919.117-1.218.35-.299.224-.504.551-.616.98l-1.246-.098c.14-.7.476-1.264,1.008-1.694.541-.438,1.232-.658,2.072-.658.952,0,1.68.271,2.184.812.504.532.756,1.27.756,2.212v3.066c0,.168.028.29.084.364.065.066.168.098.308.098h.294v1.036c-.037.01-.098.014-.182.014-.084.01-.173.014-.266.014-.336,0-.611-.051-.826-.154-.205-.112-.355-.28-.448-.504-.093-.233-.14-.536-.14-.91l.14.028c-.065.318-.224.607-.476.868-.252.252-.565.453-.938.602-.373.14-.77.21-1.19.21Zm.112-1.036c.495,0,.915-.093,1.26-.28.355-.196.625-.457.812-.784.187-.336.28-.709.28-1.12v-.532l-2.408.448c-.504.094-.854.238-1.05.434-.187.187-.28.434-.28.742c0,.346.121.616.364.812.252.187.593.28,1.022.28Zm8.537.868v-7.42h1.078l.042,1.89-.14-.126c.093-.438.257-.798.49-1.078.233-.289.513-.504.84-.644.336-.14.695-.21,1.078-.21.569,0,1.036.126,1.4.378.373.252.649.593.826,1.022.187.42.28.892.28,1.414v4.774h-1.176v-4.438c0-.457-.056-.84-.168-1.148-.103-.317-.271-.555-.504-.714-.233-.168-.537-.252-.91-.252-.569,0-1.041.182-1.414.546-.364.355-.546.878-.546,1.568v4.438h-1.176Zm9.72.168c-.765,0-1.377-.177-1.834-.532-.448-.354-.672-.849-.672-1.484c0-.634.187-1.134.56-1.498s.966-.62,1.778-.77l2.632-.49c0-.625-.149-1.092-.448-1.4-.289-.308-.728-.462-1.316-.462-.513,0-.919.117-1.218.35-.299.224-.504.551-.616.98l-1.246-.098c.14-.7.476-1.264,1.008-1.694.541-.438,1.232-.658,2.072-.658.952,0,1.68.271,2.184.812.504.532.756,1.27.756,2.212v3.066c0,.168.028.29.084.364.065.066.168.098.308.098h.294v1.036c-.037.01-.098.014-.182.014-.084.01-.173.014-.266.014-.336,0-.611-.051-.826-.154-.205-.112-.355-.28-.448-.504-.093-.233-.14-.536-.14-.91l.14.028c-.065.318-.224.607-.476.868-.252.252-.565.453-.938.602-.373.14-.77.21-1.19.21Zm.112-1.036c.495,0,.915-.093,1.26-.28.355-.196.625-.457.812-.784.187-.336.28-.709.28-1.12v-.532l-2.408.448c-.504.094-.854.238-1.05.434-.187.187-.28.434-.28.742c0,.346.121.616.364.812.252.187.593.28,1.022.28Zm5.262.868v-7.42h1.078l.042,1.876-.168-.056c.084-.41.229-.76.434-1.05.215-.298.476-.527.784-.686.308-.168.649-.252,1.022-.252.644,0,1.167.178,1.568.532.411.355.668.85.77,1.484l-.224-.014c.075-.429.21-.788.406-1.078.206-.298.467-.527.784-.686.318-.158.682-.238,1.092-.238.532,0,.98.112,1.344.336.364.215.64.532.826.952.187.42.28.929.28,1.526v4.774h-1.176v-4.522c0-.672-.13-1.176-.392-1.512-.261-.345-.648-.518-1.162-.518-.345,0-.648.084-.91.252-.252.168-.448.411-.588.728-.14.308-.21.686-.21,1.134v4.438h-1.176v-4.438c0-.662-.116-1.18-.35-1.554-.233-.373-.625-.56-1.176-.56-.345,0-.648.084-.91.252-.252.168-.452.411-.602.728-.14.318-.21.696-.21,1.134v4.438h-1.176Zm14.732.168c-.7,0-1.307-.158-1.82-.476-.504-.317-.896-.765-1.176-1.344-.271-.588-.406-1.274-.406-2.058s.135-1.465.406-2.044c.28-.578.667-1.026,1.162-1.344.504-.326,1.096-.49,1.778-.49.644,0,1.213.154,1.708.462.494.299.877.738,1.148,1.316.28.579.42,1.284.42,2.114v.35h-5.39c.046.794.256,1.391.63,1.792.382.402.896.602,1.54.602.485,0,.882-.112,1.19-.336.317-.233.536-.536.658-.91l1.26.098c-.196.663-.57,1.209-1.12,1.638-.542.42-1.204.63-1.988.63Zm-2.17-4.55h4.102c-.056-.718-.266-1.246-.63-1.582-.355-.336-.808-.504-1.358-.504-.57,0-1.041.178-1.414.532-.364.346-.598.864-.7,1.554Zm6.279-.7v-1.092h6.44v1.092h-6.44Zm0,2.884v-1.092h6.44v1.092h-6.44Zm7.631-4.018l-.28-2.604v-1.12h1.232l-.084,3.724h-.868Zm2.156,0l-.084-3.724h1.232v1.12l-.28,2.604h-.868Zm4.504,6.216l-2.702-7.42h1.288l2.156,6.216l2.156-6.216h1.288l-2.702,7.42h-1.484Zm5.199,0v-7.42h1.176v7.42h-1.176Zm-.028-8.582v-1.372h1.232v1.372h-1.232Zm5.927,8.75c-.7,0-1.307-.158-1.82-.476-.504-.317-.896-.765-1.176-1.344-.271-.588-.406-1.274-.406-2.058s.135-1.465.406-2.044c.28-.578.667-1.026,1.162-1.344.504-.326,1.097-.49,1.778-.49.644,0,1.213.154,1.708.462.495.299.877.738,1.148,1.316.28.579.42,1.284.42,2.114v.35h-5.39c.047.794.257,1.391.63,1.792.383.402.896.602,1.54.602.485,0,.882-.112,1.19-.336.317-.233.537-.536.658-.91l1.26.098c-.196.663-.569,1.209-1.12,1.638-.541.42-1.204.63-1.988.63Zm-2.17-4.55h4.102c-.056-.718-.266-1.246-.63-1.582-.355-.336-.807-.504-1.358-.504-.569,0-1.041.178-1.414.532-.364.346-.597.864-.7,1.554Zm7.968,4.382l-2.296-7.42h1.288L255,398.091l1.764-6.188h1.26l1.764,6.188l1.75-6.188h1.288l-2.296,7.42h-1.484l-1.652-5.642-1.652,5.642h-1.47Zm9.365,2.1v-9.52h1.092l.028,1.596-.168-.084c.187-.55.495-.966.924-1.246.439-.289.943-.434,1.512-.434.737,0,1.339.182,1.806.546.476.364.826.84,1.05,1.428.233.588.35,1.223.35,1.904c0,.682-.117,1.316-.35,1.904-.224.588-.574,1.064-1.05,1.428-.467.364-1.069.546-1.806.546-.383,0-.742-.065-1.078-.196-.327-.13-.607-.312-.84-.546-.224-.233-.378-.508-.462-.826l.168-.196v3.696h-1.176Zm3.276-3.052c.644,0,1.153-.242,1.526-.728.373-.485.56-1.162.56-2.03s-.187-1.544-.56-2.03c-.373-.485-.882-.728-1.526-.728-.429,0-.803.103-1.12.308-.308.206-.551.514-.728.924-.168.411-.252.92-.252,1.526c0,.607.084,1.116.252,1.526.168.411.411.719.728.924.317.206.691.308,1.12.308Zm7.532,1.12c-.682,0-1.279-.158-1.792-.476-.514-.317-.91-.765-1.19-1.344-.28-.588-.42-1.274-.42-2.058c0-.793.14-1.479.42-2.058.28-.578.676-1.026,1.19-1.344.513-.317,1.11-.476,1.792-.476.681,0,1.274.159,1.778.476.513.318.91.766,1.19,1.344.28.579.42,1.265.42,2.058c0,.784-.14,1.47-.42,2.058-.28.579-.677,1.027-1.19,1.344-.504.318-1.097.476-1.778.476Zm0-1.12c.681,0,1.208-.242,1.582-.728.382-.494.574-1.171.574-2.03c0-.858-.192-1.53-.574-2.016-.374-.494-.901-.742-1.582-.742-.682,0-1.214.248-1.596.742-.383.486-.574,1.158-.574,2.016c0,.859.191,1.536.574,2.03.382.486.914.728,1.596.728Zm4.71.952v-7.42h1.036l.056,1.876-.112-.042c.094-.634.294-1.096.602-1.386.318-.298.738-.448,1.26-.448h.728v1.12h-.714c-.373,0-.686.07-.938.21-.242.131-.429.332-.56.602-.121.262-.182.598-.182,1.008v4.48h-1.176Zm7.044,0c-.672,0-1.172-.154-1.498-.462-.318-.308-.476-.788-.476-1.442v-7.252h1.176v7.224c0,.336.074.57.224.7.149.131.378.196.686.196h1.064v1.036h-1.176Zm-3.066-6.384v-1.036h4.242v1.036h-4.242Zm5.342.168l-.28-2.604v-1.12h1.232l-.084,3.724h-.868Zm2.156,0l-.084-3.724h1.232v1.12l-.28,2.604h-.868Zm8.732,6.384c-.691,0-1.293-.158-1.806-.476-.504-.317-.896-.765-1.176-1.344-.28-.588-.42-1.274-.42-2.058s.14-1.465.42-2.044c.28-.578.672-1.026,1.176-1.344.513-.326,1.115-.49,1.806-.49.569,0,1.073.103,1.512.308.448.196.812.486,1.092.868.28.383.462.85.546,1.4l-1.232.084c-.084-.494-.299-.872-.644-1.134-.345-.27-.77-.406-1.274-.406-.681,0-1.213.248-1.596.742-.383.486-.574,1.158-.574,2.016c0,.859.191,1.536.574,2.03.383.486.915.728,1.596.728.504,0,.929-.14,1.274-.42s.56-.7.644-1.26l1.232.084c-.084.551-.266,1.032-.546,1.442-.28.402-.644.714-1.092.938-.439.224-.943.336-1.512.336Zm7.226,0c-.682,0-1.279-.158-1.792-.476-.514-.317-.91-.765-1.19-1.344-.28-.588-.42-1.274-.42-2.058c0-.793.14-1.479.42-2.058.28-.578.676-1.026,1.19-1.344.513-.317,1.11-.476,1.792-.476.681,0,1.274.159,1.778.476.513.318.91.766,1.19,1.344.28.579.42,1.265.42,2.058c0,.784-.14,1.47-.42,2.058-.28.579-.677,1.027-1.19,1.344-.504.318-1.097.476-1.778.476Zm0-1.12c.681,0,1.208-.242,1.582-.728.382-.494.574-1.171.574-2.03c0-.858-.192-1.53-.574-2.016-.374-.494-.901-.742-1.582-.742-.682,0-1.214.248-1.596.742-.383.486-.574,1.158-.574,2.016c0,.859.191,1.536.574,2.03.382.486.914.728,1.596.728Zm4.71.952v-7.42h1.078l.042,1.89-.14-.126c.094-.438.257-.798.49-1.078.234-.289.514-.504.84-.644.336-.14.696-.21,1.078-.21.57,0,1.036.126,1.4.378.374.252.649.593.826,1.022.187.42.28.892.28,1.414v4.774h-1.176v-4.438c0-.457-.056-.84-.168-1.148-.102-.317-.27-.555-.504-.714-.233-.168-.536-.252-.91-.252-.569,0-1.04.182-1.414.546-.364.355-.546.878-.546,1.568v4.438h-1.176Zm10.011,0c-.672,0-1.172-.154-1.498-.462-.318-.308-.476-.788-.476-1.442v-7.252h1.176v7.224c0,.336.074.57.224.7.149.131.378.196.686.196h1.064v1.036h-1.176Zm-3.066-6.384v-1.036h4.242v1.036h-4.242Zm8.231,6.552c-.7,0-1.306-.158-1.82-.476-.504-.317-.896-.765-1.176-1.344-.27-.588-.406-1.274-.406-2.058s.136-1.465.406-2.044c.28-.578.668-1.026,1.162-1.344.504-.326,1.097-.49,1.778-.49.644,0,1.214.154,1.708.462.495.299.878.738,1.148,1.316.28.579.42,1.284.42,2.114v.35h-5.39c.047.794.257,1.391.63,1.792.383.402.896.602,1.54.602.486,0,.882-.112,1.19-.336.318-.233.537-.536.658-.91l1.26.098c-.196.663-.569,1.209-1.12,1.638-.541.42-1.204.63-1.988.63Zm-2.17-4.55h4.102c-.056-.718-.266-1.246-.63-1.582-.354-.336-.807-.504-1.358-.504-.569,0-1.04.178-1.414.532-.364.346-.597.864-.7,1.554Zm6.703,4.382v-7.42h1.078l.042,1.89-.14-.126c.094-.438.257-.798.49-1.078.234-.289.514-.504.84-.644.336-.14.696-.21,1.078-.21.57,0,1.036.126,1.4.378.374.252.649.593.826,1.022.187.42.28.892.28,1.414v4.774h-1.176v-4.438c0-.457-.056-.84-.168-1.148-.102-.317-.27-.555-.504-.714-.233-.168-.536-.252-.91-.252-.569,0-1.04.182-1.414.546-.364.355-.546.878-.546,1.568v4.438h-1.176Zm10.01,0c-.672,0-1.171-.154-1.498-.462-.317-.308-.476-.788-.476-1.442v-7.252h1.176v7.224c0,.336.075.57.224.7.15.131.378.196.686.196h1.064v1.036h-1.176Zm-3.066-6.384v-1.036h4.242v1.036h-4.242Zm4.993,1.302v-1.092h6.44v1.092h-6.44Zm0,2.884v-1.092h6.44v1.092h-6.44Zm7.63-4.018l-.28-2.604v-1.12h1.232l-.084,3.724h-.868Zm2.156,0l-.084-3.724h1.232v1.12l-.28,2.604h-.868Zm4.098,6.216l-2.296-7.42h1.288l1.736,6.188l1.764-6.188h1.26l1.764,6.188l1.75-6.188h1.288l-2.296,7.42h-1.484l-1.652-5.642-1.652,5.642h-1.47Zm9.57,0v-7.42h1.176v7.42h-1.176Zm-.028-8.582v-1.372h1.232v1.372h-1.232Zm5.662,8.75c-.644,0-1.204-.158-1.68-.476-.467-.317-.826-.765-1.078-1.344-.252-.578-.378-1.264-.378-2.058c0-.793.126-1.479.378-2.058.252-.578.611-1.026,1.078-1.344.476-.317,1.036-.476,1.68-.476.494,0,.947.108,1.358.322.41.206.718.5.924.882v-3.556h1.176v9.94h-1.064l-.042-1.12c-.206.402-.518.719-.938.952-.42.224-.892.336-1.414.336Zm.238-1.12c.438,0,.807-.112,1.106-.336.308-.224.541-.541.7-.952.158-.42.238-.91.238-1.47c0-.578-.08-1.073-.238-1.484-.159-.41-.392-.723-.7-.938-.299-.224-.668-.336-1.106-.336-.654,0-1.176.248-1.568.742-.383.486-.574,1.158-.574,2.016c0,.85.191,1.522.574,2.016.392.495.914.742,1.568.742Zm7.331.952c-.672,0-1.171-.154-1.498-.462-.317-.308-.476-.788-.476-1.442v-7.252h1.176v7.224c0,.336.075.57.224.7.149.131.378.196.686.196h1.064v1.036h-1.176Zm-3.066-6.384v-1.036h4.242v1.036h-4.242Zm5.471,6.384v-9.94h1.176v4.158l-.14-.028c.093-.41.252-.746.476-1.008.224-.261.499-.452.826-.574.326-.13.686-.196,1.078-.196.532,0,.98.122,1.344.364.373.234.653.565.84.994.196.42.294.906.294,1.456v4.774h-1.176v-4.438c0-.718-.131-1.25-.392-1.596-.252-.345-.64-.518-1.162-.518-.598,0-1.078.182-1.442.546s-.546.892-.546,1.582v4.424h-1.176Zm7.294-5.082v-1.092h6.44v1.092h-6.44Zm0,2.884v-1.092h6.44v1.092h-6.44Z" opacity="0" fill="#020817"/><path id="ePH6Ulaq5XZ55" d="M152.917,418.875l-6.356-2.856v-1.484l6.356-2.856v1.176l-5.572,2.492v-.14l5.572,2.492v1.176Zm4.255.448c-.672,0-1.171-.154-1.498-.462-.317-.308-.476-.788-.476-1.442v-7.252h1.176v7.224c0,.336.075.57.224.7.15.131.378.196.686.196h1.064v1.036h-1.176Zm-3.066-6.384v-1.036h4.242v1.036h-4.242Zm5.471,6.384v-7.42h1.176v7.42h-1.176Zm-.028-8.582v-1.372h1.232v1.372h-1.232Zm5.321,8.582c-.672,0-1.171-.154-1.498-.462-.317-.308-.476-.788-.476-1.442v-7.252h1.176v7.224c0,.336.075.57.224.7.149.131.378.196.686.196h1.064v1.036h-1.176Zm-3.066-6.384v-1.036h4.242v1.036h-4.242Zm7.008,6.384c-.429,0-.779-.112-1.05-.336-.27-.224-.406-.578-.406-1.064v-8.54h1.176v8.442c0,.15.038.266.112.35.084.075.201.112.35.112h.644v1.036h-.826Zm4.813.168c-.7,0-1.307-.158-1.82-.476-.504-.317-.896-.765-1.176-1.344-.271-.588-.406-1.274-.406-2.058s.135-1.465.406-2.044c.28-.578.667-1.026,1.162-1.344.504-.326,1.097-.49,1.778-.49.644,0,1.213.154,1.708.462.495.299.877.738,1.148,1.316.28.579.42,1.284.42,2.114v.35h-5.39c.047.794.257,1.391.63,1.792.383.402.896.602,1.54.602.485,0,.882-.112,1.19-.336.317-.233.537-.536.658-.91l1.26.098c-.196.663-.569,1.209-1.12,1.638-.541.42-1.204.63-1.988.63Zm-2.17-4.55h4.102c-.056-.718-.266-1.246-.63-1.582-.355-.336-.807-.504-1.358-.504-.569,0-1.041.178-1.414.532-.364.346-.597.864-.7,1.554Zm6.42,3.934v-1.176l5.572-2.492v.14l-5.572-2.492v-1.176l6.356,2.856v1.484l-6.356,2.856Zm9.623.448v-8.764h-3.094v-1.176h7.392v1.176h-3.094v8.764h-1.204Zm7.08.168c-.682,0-1.279-.158-1.792-.476-.514-.317-.91-.765-1.19-1.344-.28-.588-.42-1.274-.42-2.058c0-.793.14-1.479.42-2.058.28-.578.676-1.026,1.19-1.344.513-.317,1.11-.476,1.792-.476.681,0,1.274.159,1.778.476.513.318.91.766,1.19,1.344.28.579.42,1.265.42,2.058c0,.784-.14,1.47-.42,2.058-.28.579-.677,1.027-1.19,1.344-.504.318-1.097.476-1.778.476Zm0-1.12c.681,0,1.208-.242,1.582-.728.382-.494.574-1.171.574-2.03c0-.858-.192-1.53-.574-2.016-.374-.494-.901-.742-1.582-.742-.682,0-1.214.248-1.596.742-.383.486-.574,1.158-.574,2.016c0,.859.191,1.536.574,2.03.382.486.914.728,1.596.728Zm4.343-2.576v-1.106h4.634v1.106h-4.634Zm6.257,3.528v-9.94h3.08c1.531,0,2.707.434,3.528,1.302.831.859,1.246,2.086,1.246,3.682c0,1.587-.406,2.81-1.218,3.668-.812.859-1.969,1.288-3.472,1.288h-3.164Zm1.204-1.176h1.876c1.167,0,2.044-.312,2.632-.938.588-.634.882-1.582.882-2.842c0-1.278-.294-2.23-.882-2.856-.588-.634-1.465-.952-2.632-.952h-1.876v7.588Zm11.213,1.344c-.681,0-1.278-.158-1.792-.476-.513-.317-.91-.765-1.19-1.344-.28-.588-.42-1.274-.42-2.058c0-.793.14-1.479.42-2.058.28-.578.677-1.026,1.19-1.344.514-.317,1.111-.476,1.792-.476.682,0,1.274.159,1.778.476.514.318.91.766,1.19,1.344.28.579.42,1.265.42,2.058c0,.784-.14,1.47-.42,2.058-.28.579-.676,1.027-1.19,1.344-.504.318-1.096.476-1.778.476Zm0-1.12c.682,0,1.209-.242,1.582-.728.383-.494.574-1.171.574-2.03c0-.858-.191-1.53-.574-2.016-.373-.494-.9-.742-1.582-.742-.681,0-1.213.248-1.596.742-.382.486-.574,1.158-.574,2.016c0,.859.192,1.536.574,2.03.383.486.915.728,1.596.728Zm8.236.952v-9.94h1.204v9.38l-.602-.616h5.572v1.176h-6.174Zm6.975,0v-7.42h1.176v7.42h-1.176Zm-.028-8.582v-1.372h1.232v1.372h-1.232Zm5.732,8.75c-.663,0-1.228-.107-1.694-.322-.458-.214-.817-.508-1.078-.882-.252-.382-.397-.816-.434-1.302l1.232-.084c.074.448.266.808.574,1.078.308.262.774.392,1.4.392.504,0,.905-.079,1.204-.238.308-.168.462-.434.462-.798c0-.196-.047-.359-.14-.49-.094-.13-.276-.242-.546-.336-.271-.102-.672-.2-1.204-.294-.71-.13-1.27-.289-1.68-.476-.402-.196-.691-.434-.868-.714-.168-.289-.252-.63-.252-1.022c0-.662.242-1.204.728-1.624.485-.429,1.176-.644,2.072-.644.606,0,1.115.112,1.526.336.42.215.746.504.98.868.242.355.401.747.476,1.176l-1.232.084c-.056-.261-.159-.49-.308-.686-.15-.205-.346-.364-.588-.476-.243-.121-.532-.182-.868-.182-.532,0-.924.103-1.176.308-.252.206-.378.467-.378.784c0,.243.056.444.168.602.121.15.312.276.574.378.261.094.611.178,1.05.252.756.131,1.344.29,1.764.476.42.187.714.416.882.686.168.271.252.602.252.994c0,.458-.131.85-.392,1.176-.252.318-.598.56-1.036.728-.43.168-.92.252-1.47.252Zm6.652-.168c-.672,0-1.172-.154-1.498-.462-.318-.308-.476-.788-.476-1.442v-7.252h1.176v7.224c0,.336.074.57.224.7.149.131.378.196.686.196h1.064v1.036h-1.176Zm-3.066-6.384v-1.036h4.242v1.036h-4.242Zm11.348,5.936l-6.356-2.856v-1.484l6.356-2.856v1.176l-5.572,2.492v-.14l5.572,2.492v1.176Zm.979,1.988l4.13-12.04h1.12l-4.13,12.04h-1.12Zm9.162-1.54c-.672,0-1.171-.154-1.498-.462-.317-.308-.476-.788-.476-1.442v-7.252h1.176v7.224c0,.336.075.57.224.7.15.131.378.196.686.196h1.064v1.036h-1.176Zm-3.066-6.384v-1.036h4.242v1.036h-4.242Zm5.471,6.384v-7.42h1.176v7.42h-1.176Zm-.028-8.582v-1.372h1.232v1.372h-1.232Zm5.321,8.582c-.672,0-1.171-.154-1.498-.462-.317-.308-.476-.788-.476-1.442v-7.252h1.176v7.224c0,.336.075.57.224.7.15.131.378.196.686.196h1.064v1.036h-1.176Zm-3.066-6.384v-1.036h4.242v1.036h-4.242Zm7.009,6.384c-.43,0-.78-.112-1.05-.336-.271-.224-.406-.578-.406-1.064v-8.54h1.176v8.442c0,.15.037.266.112.35.084.075.2.112.35.112h.644v1.036h-.826Zm4.812.168c-.7,0-1.307-.158-1.82-.476-.504-.317-.896-.765-1.176-1.344-.271-.588-.406-1.274-.406-2.058s.135-1.465.406-2.044c.28-.578.667-1.026,1.162-1.344.504-.326,1.097-.49,1.778-.49.644,0,1.213.154,1.708.462.495.299.877.738,1.148,1.316.28.579.42,1.284.42,2.114v.35h-5.39c.047.794.257,1.391.63,1.792.383.402.896.602,1.54.602.485,0,.882-.112,1.19-.336.317-.233.537-.536.658-.91l1.26.098c-.196.663-.569,1.209-1.12,1.638-.541.42-1.204.63-1.988.63Zm-2.17-4.55h4.102c-.056-.718-.266-1.246-.63-1.582-.355-.336-.807-.504-1.358-.504-.569,0-1.041.178-1.414.532-.364.346-.597.864-.7,1.554Zm6.42,3.934v-1.176l5.572-2.492v.14l-5.572-2.492v-1.176l6.356,2.856v1.484l-6.356,2.856Z" opacity="0" fill="#020817"/><path id="ePH6Ulaq5XZ56" d="M140.917,438.875l-6.356-2.856v-1.484l6.356-2.856v1.176l-5.572,2.492v-.14l5.572,2.492v1.176Zm.979,1.988l4.13-12.04h1.12l-4.13,12.04h-1.12Zm6.692-1.54v-9.94h1.176v4.158l-.14-.028c.094-.41.252-.746.476-1.008.224-.261.5-.452.826-.574.327-.13.686-.196,1.078-.196.532,0,.98.122,1.344.364.374.234.654.565.84.994.196.42.294.906.294,1.456v4.774h-1.176v-4.438c0-.718-.13-1.25-.392-1.596-.252-.345-.639-.518-1.162-.518-.597,0-1.078.182-1.442.546s-.546.892-.546,1.582v4.424h-1.176Zm10.589.168c-.7,0-1.307-.158-1.82-.476-.504-.317-.896-.765-1.176-1.344-.271-.588-.406-1.274-.406-2.058s.135-1.465.406-2.044c.28-.578.667-1.026,1.162-1.344.504-.326,1.097-.49,1.778-.49.644,0,1.213.154,1.708.462.495.299.877.738,1.148,1.316.28.579.42,1.284.42,2.114v.35h-5.39c.047.794.257,1.391.63,1.792.383.402.896.602,1.54.602.485,0,.882-.112,1.19-.336.317-.233.537-.536.658-.91l1.26.098c-.196.663-.569,1.209-1.12,1.638-.541.42-1.204.63-1.988.63Zm-2.17-4.55h4.102c-.056-.718-.266-1.246-.63-1.582-.355-.336-.807-.504-1.358-.504-.569,0-1.041.178-1.414.532-.364.346-.597.864-.7,1.554Zm8.896,4.55c-.765,0-1.376-.177-1.834-.532-.448-.354-.672-.849-.672-1.484c0-.634.187-1.134.56-1.498.374-.364.966-.62,1.778-.77l2.632-.49c0-.625-.149-1.092-.448-1.4-.289-.308-.728-.462-1.316-.462-.513,0-.919.117-1.218.35-.298.224-.504.551-.616.98l-1.246-.098c.14-.7.476-1.264,1.008-1.694.542-.438,1.232-.658,2.072-.658.952,0,1.68.271,2.184.812.504.532.756,1.27.756,2.212v3.066c0,.168.028.29.084.364.066.066.168.098.308.098h.294v1.036c-.037.01-.098.014-.182.014-.084.01-.172.014-.266.014-.336,0-.611-.051-.826-.154-.205-.112-.354-.28-.448-.504-.093-.233-.14-.536-.14-.91l.14.028c-.065.318-.224.607-.476.868-.252.252-.564.453-.938.602-.373.14-.77.21-1.19.21Zm.112-1.036c.495,0,.915-.093,1.26-.28.355-.196.626-.457.812-.784.187-.336.28-.709.28-1.12v-.532l-2.408.448c-.504.094-.854.238-1.05.434-.186.187-.28.434-.28.742c0,.346.122.616.364.812.252.187.593.28,1.022.28Zm7.867,1.036c-.644,0-1.204-.158-1.68-.476-.466-.317-.826-.765-1.078-1.344-.252-.578-.378-1.264-.378-2.058c0-.793.126-1.479.378-2.058.252-.578.612-1.026,1.078-1.344.476-.317,1.036-.476,1.68-.476.495,0,.948.108,1.358.322.411.206.719.5.924.882v-3.556h1.176v9.94h-1.064l-.042-1.12c-.205.402-.518.719-.938.952-.42.224-.891.336-1.414.336Zm.238-1.12c.439,0,.808-.112,1.106-.336.308-.224.542-.541.7-.952.159-.42.238-.91.238-1.47c0-.578-.079-1.073-.238-1.484-.158-.41-.392-.723-.7-.938-.298-.224-.667-.336-1.106-.336-.653,0-1.176.248-1.568.742-.382.486-.574,1.158-.574,2.016c0,.85.192,1.522.574,2.016.392.495.915.742,1.568.742Zm4.756.504v-1.176l5.572-2.492v.14l-5.572-2.492v-1.176l6.356,2.856v1.484l-6.356,2.856Z" opacity="0" fill="#020817"/></g><mask id="ePH6Ulaq5XZ57" mask-type="luminance" x="-150%" y="-150%" height="400%" width="400%"><path d="M110,242c0-4.418,3.582-8,8-8h266c4.418,0,8,3.582,8,8v209h-282v-209Z" fill="#fff"/></mask></g></g><mask id="ePH6Ulaq5XZ59" mask-type="luminance" x="-150%" y="-150%" height="400%" width="400%"><path d="M392,0.620117h-392L0,450.62h392v-449.999883Z" transform="translate(0 0.000001)" fill="#fff"/></mask></g></g><clipPath id="ePH6Ulaq5XZ61"><rect width="392" height="451" rx="0" ry="0" fill="#fff"/></clipPath></g><rect id="ePH6Ulaq5XZ63" style="mix-blend-mode:multiply" rx="0" ry="0" transform="matrix(1 0 0 1 0 225.5)" opacity="0.8" fill="url(#ePH6Ulaq5XZ63-fill)" stroke-width="0"/><g id="ePH6Ulaq5XZ64" transform="matrix(1.288571 0 0 1.288571 172.942857 360.8)"><path id="ePH6Ulaq5XZ65" opacity="0.7" clip-rule="evenodd" fill="#fff" fill-rule="evenodd"/><g id="ePH6Ulaq5XZ66" transform="matrix(.3 0 0 0.3-18.12243-25.905895)" opacity="0.7" mask="url(#ePH6Ulaq5XZ68)"><path id="ePH6Ulaq5XZ67" fill="#fff"/><mask id="ePH6Ulaq5XZ68" mask-type="alpha" x="-150%" y="-150%" height="400%" width="400%"><path id="ePH6Ulaq5XZ69" d="M78.37454,207.03926c0-31.45994,25.50332-56.96327,56.96327-56.96327s56.96327,25.50332,56.96327,56.96327-25.50332,56.96327-56.96327,56.96327-56.96327-25.50332-56.96327-56.96327Zm89.23546-4.715c-.16775-.93858-1.05962-1.56734-2-1.41h-.06c-4.15414.71597-8.30501-1.28258-10.33588-4.97651s-1.49439-8.26953,1.33588-11.39349c.33036-.3301.51598-.77798.51598-1.245s-.18561-.9149-.51598-1.245l-.11-.1c-2.70671-2.31865-5.78705-4.16144-9.11-5.45-.43613-.17299-.92328-.16468-1.35326.02308s-.76719.53944-.93674.97692v.06c-1.40364,3.98681-5.18789,6.63916-9.41438,6.59848s-7.95898-2.76539-9.28562-6.77848c-.13404-.44903-.44162-.82607-.85458-1.04757s-.8972-.26916-1.34542-.13243h-.11c-3.26392,1.21388-6.31249,2.94242-9.03,5.12-.37331.28196-.619.70095-.6828,1.16441s.05956.93325.3428,1.30559l.1.12c2.68294,3.2243,3.03751,7.79124.8844,11.39101s-6.34454,5.44763-10.4544,4.60899c-.45624-.10445-.9353-.02286-1.33126.22672s-.67619.6466-.77874,1.10328v.09c-.55386,3.43784-.55386,6.94217,0,10.38.06433.46505.31181.88512.68739,1.16681s.84815.40164,1.31261.33319h.11c4.15414-.71597,8.30501,1.28258,10.33588,4.97651s1.49439,8.26953-1.33588,11.39349c-.33036.3301-.51598.77798-.51598,1.245s.18561.9149.51598,1.245l.11.1c2.70914,2.30768,5.7893,4.14023,9.11,5.42.43613.17299.92328.16468,1.35326-.02308s.76719-.53944.93674-.97692v-.06c1.40815-3.97311,5.18194-6.61524,9.39704-6.57914s7.94308,2.7425,9.28296,6.73914c.13404.44903.44162.82607.85458,1.04757s.8972.26916,1.34542.13243h.11c3.30375-1.22537,6.38706-2.97809,9.13-5.19.37164-.28659.61343-.70974.67164-1.17542s-.07198-.93533-.36164-1.30458l-.1-.12c-2.83001-3.19588-3.28744-7.84789-1.13412-11.53378s6.43037-5.57199,10.60412-4.67622c.93041.23341,1.87421-.33019,2.11-1.26v-.09c.5347-3.37898.5347-6.82102,0-10.2Zm-41.67,4.69c0-5.197,4.213-9.41,9.41-9.41s9.41,4.213,9.41,9.41-4.213,9.41-9.41,9.41-9.41-4.213-9.41-9.41Z" fill="#d2dbed" stroke-width="0"/></mask></g><path id="ePH6Ulaq5XZ70" transform="matrix(.3 0 0 0.3-17.650844-2.6395)" opacity="0.7" fill="#fff"/></g>
<script><![CDATA[
!function(t,e){"object"==typeof exports&&"undefined"!=typeof module?module.exports=e():"function"==typeof __SVGATOR_DEFINE__&&__SVGATOR_DEFINE__.amd?__SVGATOR_DEFINE__(e):((t="undefined"!=typeof globalThis?globalThis:t||self).__SVGATOR_PLAYER__=t.__SVGATOR_PLAYER__||{},t.__SVGATOR_PLAYER__["5c7f360c"]=e())}(this,(function(){"use strict";class t{static _removeQuotes(t){return`${t}`.replace(/['"]/g,"")}static _convertHEXToRGB(t){const e=["^","\\s*","#","(?<red>[0-9A-Z]{1,2})","(?<green>[0-9A-Z]{1,2})","(?<blue>[0-9A-Z]{1,2})"].join(""),n=t.match(new RegExp(e,"i"));if(!n)return t;const r=t=>parseInt(t.length>1?t:`${t}${t}`,16);return`rgb(${r(n.groups.red)}, ${r(n.groups.green)}, ${r(n.groups.blue)})`}static _sanitizeNumber(t){return+t}static _suffixWithUnit(t,e="px"){return t.endsWith(e)?t:`${t}${e}`}static _roundToNDecimals(t,e=0){const n=Math.pow(10,e);return Math.round(t*n)/n}static getValuesFromMatrix(t){const e=["^","\\s*","(matrix\\()","(?<a>-?[0-9]*\\.?[0-9]+)","\\s*",",?","\\s*","(?<b>-?[0-9]*\\.?[0-9]+)","\\s*",",?","\\s*","(?<c>-?[0-9]*\\.?[0-9]+)","\\s*",",?","\\s*","(?<d>-?[0-9]*\\.?[0-9]+)","\\s*",",?","\\s*","(?<e>-?[0-9]*\\.?[0-9]+)","\\s*",",?","\\s*","(?<f>-?[0-9]*\\.?[0-9]+)","\\)"].join(""),n=t.match(new RegExp(e,"i"));if(n)return[this._sanitizeNumber(n.groups.a),this._sanitizeNumber(n.groups.b),this._sanitizeNumber(n.groups.c),this._sanitizeNumber(n.groups.d),this._sanitizeNumber(n.groups.e),this._sanitizeNumber(n.groups.f)]}static checkAgainstDefault(t,e="inline"){if(t!==e&&(t=this._removeQuotes(t))!==e)return t}static paint(t,e="rgb(0, 0, 0)"){if(t===e)return;if((t=this._removeQuotes(t))===e)return;if(t.startsWith("rgb"))return t;const n=this._convertHEXToRGB(t);return n===e?void 0:n}static opacity(t,e="1"){if(t!==e&&(t=`${this._roundToNDecimals(this._sanitizeNumber(t),3)}`)!==e)return t}static strokeWidth(t,e="1px"){if(t===e)return;if(t.endsWith("px"))return t;t=`${this._sanitizeNumber(t)}`;const n=this._suffixWithUnit(t);return n!==e?n:void 0}static transform(t,e="none"){if(t===e)return;const n=this.getValuesFromMatrix(t);return n?`matrix(${n.join(", ")})`:t}static transformOrigin(t,e="0px 0px"){if(t===e)return;const n=["^","\\s*","(?<x>[0-9]+)","(px)?","\\s*",",","\\s*","(?<y>[0-9]+)","(px)?"].join(""),r=t.match(new RegExp(n,"i"));if(!r)return t;let i=`${this._sanitizeNumber(r.groups.x)}`;i=this._suffixWithUnit(i);let s=`${this._sanitizeNumber(r.groups.y)}`;s=this._suffixWithUnit(s);const o=`${i} ${s}`;return o===e?void 0:o}}const e=r(Math.pow(10,-6)),n=r(Math.pow(10,-2));function r(t,e=6){return function(t,e,n){if(Number.isInteger(t))return t;const r=Math.pow(10,e);return Math[n]((+t+Number.EPSILON)*r)/r}(t,e,"round")}function i(t,n,r=e){return Math.abs(t-n)<r}r(Math.pow(10,-4));const s=Math.PI/180;function o(t){return t*s}function u(t){return t/s}class l{static _VISUAL_PROPERTIES=Object.freeze({display:e=>t.checkAgainstDefault(e),fill:e=>t.paint(e),"fill-opacity":e=>t.opacity(e),filter:e=>t.checkAgainstDefault(e,"none"),opacity:e=>t.opacity(e),stroke:e=>t.paint(e,"none"),"stroke-opacity":e=>t.opacity(e),"stroke-width":e=>t.strokeWidth(e),transform:e=>t.transform(e),"transform-origin":e=>t.transformOrigin(e),visibility:e=>t.checkAgainstDefault(e,"visible")});static _keys=Object.keys(this._VISUAL_PROPERTIES);static _MINIMUM_PRECISION_ERROR_PERCENTAGE=n;static get visualProperties(){return this._VISUAL_PROPERTIES}static _isWithinPrecisionErrorLimit(t,e){return i((e-t)/(e||1)*100,0,this._MINIMUM_PRECISION_ERROR_PERCENTAGE)}static _getTransformValue(e,n,r,i=window){var s,o;const u=e.getAttribute(n),l=i.safari&&!i.chrome&&"none"===(null===(s=r.getPropertyValue)||void 0===s?void 0:s.call(r,n))?u:null===(o=r.getPropertyValue)||void 0===o?void 0:o.call(r,n);if(!u||!l)return;if(u===l)return u;const a=t.getValuesFromMatrix(u),c=t.getValuesFromMatrix(l);if((null==a?void 0:a.length)===(null==c?void 0:c.length)){for(let t=0,e=a.length;t<e;t++)if(a[t]!==c[t]&&!this._isWithinPrecisionErrorLimit(c[t],a[t]))return;return u}}static _getValue(t,e,n){var r,i,s,o;return n&&"transform"===e?this._getTransformValue(t,e,n):(null===(r=n.getPropertyValue)||void 0===r?void 0:r.call(n,e))??(null===(i=t.attrs)||void 0===i||null===(s=i.style)||void 0===s?void 0:s[e])??(null===(o=t.attrs)||void 0===o?void 0:o[e])}static getProperties(t,e){const n="undefined"!=typeof window&&getComputedStyle(t),r={};for(let s=0,o=this._keys.length;s<o;s++){var i;const o=this._keys[s];if(null!=e&&null!==(i=e[t.id])&&void 0!==i&&i[o])continue;const u=this._getValue(t,o,n);if(null==u)continue;const l=this.visualProperties[o].call(this,u);l&&(r[o]=l)}return r}}class a{_hash;_baseId;_watermarkIds;constructor(t){var e,n;null!==(e=t.watermarkData)&&void 0!==e&&e.length&&(this._hash=t.watermarkData.shift(),this._baseId=null===(n=t.rootId)||void 0===n?void 0:n.slice(0,-1),this._watermarkIds=t.watermarkData.map((t=>this.constructor._buildId(this._baseId,t))))}get hash(){return this._hash}get watermarkIds(){return this._watermarkIds}static _buildId(t,e){return`${t}${e}`}static _buildIdSuffixes(t,e){const n=t.slice(0,-1),r=[];for(let t=0,s=e.length;t<s;t++){var i;r.push(null===(i=e[t])||void 0===i?void 0:i.replace(n,""))}return r}static generateIds(t,e,n){return[t,...this._buildIdSuffixes(e,n)]}}class c{constructor(t){this._player=t,this._watermarkDataLayer=new a(t)}get _svg(){return this._player.svg}get _watermarkIds(){return this._watermarkDataLayer.watermarkIds}get _animations(){return this._player.originalAnimations[0].elements}get _hash(){return this._watermarkDataLayer.hash}_processElement(t,e,n){var r;if(e[t])return;const i=this._svg.querySelector("#"+t),s=null==i||null===(r=i.parentElement)||void 0===r?void 0:r.id;if(i&&s){if(this._watermarkIds.includes(s))return e[s]||this._processElement(s,e,n),e[s].children??=[],e[t]=l.getProperties(i,this._animations),void e[s].children.push(e[t]);e[t]=l.getProperties(i,this._animations),n.push(e[t])}}_buildObfuscationJSON(){let t=[],e={};for(let n=0,r=this._watermarkIds.length;n<r;n++)this._processElement(this._watermarkIds[n],e,t);return t}async _generateHash(t){var e,n;const r=JSON.stringify(t),i=(new TextEncoder).encode(r),s=await(null===(e=window.crypto)||void 0===e||null===(n=e.subtle)||void 0===n?void 0:n.digest("SHA-256",i));return s&&Array.from(new Uint8Array(s)).map((t=>t.toString(16).padStart(2,"0"))).join("")||this._hash}async _calculateHash(){const t=this._buildObfuscationJSON();return await this._generateHash(t)}async validateHash(){await this._calculateHash()!==this._hash&&requestAnimationFrame((()=>this._player.stop()))}}class h{static _MIN_CHECK_TIME=300;static _MAX_CHECK_TIME=500;static _MIN_FRAMES=3;_frameCounter=0;_previousTimestamp=0;constructor(t){this._player=t,this._hashGenerator=new c(t)}_shouldBeChecked(t){return!(t-this._previousTimestamp<this.constructor._MIN_CHECK_TIME)&&(t-this._previousTimestamp>=this.constructor._MAX_CHECK_TIME||this._frameCounter>=this.constructor._MIN_FRAMES)}async checkFrame(t){this._player.watermarkData&&(this._frameCounter++,this._shouldBeChecked(t)&&(this._frameCounter=0,this._previousTimestamp=t,window.requestAnimationFrame((()=>this._hashGenerator.validateHash()))))}}function f(t){return t}function d(t,e,n){const r=1-n;return 3*n*r*(t*r+e*n)+n*n*n}function g(t=0,e=0,n=1,r=1){return t<0||t>1||n<0||n>1?null:i(t,e)&&i(n,r)?f:s=>{if(s<=0)return t>0?s*e/t:0===e&&n>0?s*r/n:0;if(s>=1)return n<1?1+(s-1)*(r-1)/(n-1):1===n&&t<1?1+(s-1)*(e-1)/(t-1):1;let o,u=0,l=1;for(;u<l;){o=(u+l)/2;const e=d(t,n,o);if(i(s,e))break;e<s?u=o:l=o}return d(e,r,o)}}function m(){return 1}function p(t){return 1===t?1:0}function y(t=1,e=0){if(1===t){if(0===e)return p;if(1===e)return m}const n=1/t;return t=>t>=1?1:(t+=e*n)-t%n}Number.isInteger||(Number.isInteger=function(t){return"number"==typeof t&&isFinite(t)&&Math.floor(t)===t}),Number.EPSILON||(Number.EPSILON=2220446049250313e-31);const _=Math.sin,b=Math.cos,v=Math.acos,w=Math.asin,A=Math.tan,x=Math.atan2,k=Math.sqrt;function S(t,e){return{a:t[0]*e[0]+t[2]*e[1],b:t[1]*e[0]+t[3]*e[1],c:t[0]*e[2]+t[2]*e[3],d:t[1]*e[2]+t[3]*e[3],tx:t[0]*e[4]+t[2]*e[5]+t[4],ty:t[1]*e[4]+t[3]*e[5]+t[5]}}function E(t,e,n){return t>=.5?n:e}function I(t,e,n){return 0===t||e===n?e:t*(n-e)+e}function M(t,e,n){const r=I(t,e,n);return r<=0?0:r}function N(t,e,n){const r=I(t,e,n);return r<=0?0:r>=1?1:r}function T(t,e,n){return 0===t?e:1===t?n:{x:I(t,e.x,n.x),y:I(t,e.y,n.y)}}function O(t,e,n){return 0===t?e:1===t?n:{x:M(t,e.x,n.x),y:M(t,e.y,n.y)}}function R(t,e,n){const r=function(t,e,n){return Math.round(I(t,e,n))}(t,e,n);return r<=0?0:r>=255?255:r}function C(t,e,n){return 0===t?e:1===t?n:{r:R(t,e.r,n.r),g:R(t,e.g,n.g),b:R(t,e.b,n.b),a:I(t,null==e.a?1:e.a,null==n.a?1:n.a)}}function P(t,e,n){let r=e.length;if(r!==n.length)return E(t,e,n);let i=new Array(r);for(let s=0;s<r;s++)i[s]=I(t,e[s],n[s]);return i}function B(t,e){const n=[];for(let r=0;r<t;r++)n.push(e);return n}function j(t,e){if(--e<=0)return t;const n=(t=Object.assign([],t)).length;do{for(let e=0;e<n;e++)t.push(t[e])}while(--e>0);return t}class F{constructor(t){this.list=t,this.length=t.length}setAttribute(t,e){const n=this.list;for(let r=0;r<this.length;r++)n[r].setAttribute(t,e)}removeAttribute(t){const e=this.list;for(let n=0;n<this.length;n++)e[n].removeAttribute(t)}style(t,e){const n=this.list;for(let r=0;r<this.length;r++)n[r].style[t]=e}}const V=/-./g,D=(t,e)=>e.toUpperCase();let L;function q(t){return"function"==typeof t?t:E}function z(t){return t?"function"==typeof t?t:Array.isArray(t)?function(t,e=f){if(!Array.isArray(t))return e;switch(t.length){case 1:return y(t[0])||e;case 2:return y(t[0],t[1])||e;case 4:return g(t[0],t[1],t[2],t[3])||e}return e}(t,null):function(t,e,n=f){switch(t){case"linear":return f;case"steps":return y(e.steps||1,e.jump||0)||n;case"bezier":case"cubic-bezier":return g(e.x1||0,e.y1||0,e.x2||0,e.y2||0)||n}return n}(t.type,t.value,null):null}function $(t,e,n,r=!1){const i=e.length-1;if(t<=e[0].t)return r?[0,0,e[0].v]:e[0].v;if(t>=e[i].t)return r?[i,1,e[i].v]:e[i].v;let s,o=e[0],u=null;for(s=1;s<=i;s++){if(!(t>e[s].t)){u=e[s];break}o=e[s]}return null==u?r?[i,1,e[i].v]:e[i].v:o.t===u.t?r?[s,1,u.v]:u.v:(t=(t-o.t)/(u.t-o.t),o.e&&(t=o.e(t)),r?[s,t,n(t,o.v,u.v)]:n(t,o.v,u.v))}function G(t,e,n=null){return t&&t.length?"function"!=typeof e?null:("function"!=typeof n&&(n=null),r=>{let i=$(r,t,e);return null!=i&&n&&(i=n(i)),i}):null}function H(t,e){return t.t-e.t}function W(t,e,n,r,i){const s="@"===n[0],o="#"===n[0];let u=L[n],l=E;var a;switch(s?(a=n.substr(1),n=a.replace(V,D)):o&&(n=n.substr(1)),typeof u){case"function":if(l=u(r,i,$,z,n,s,e,t),o)return l;break;case"string":l=G(r,q(u));break;case"object":if(l=G(r,q(u.i),u.f),l&&"function"==typeof u.u)return u.u(e,l,n,s,t)}return l?function(t,e,n,r=!1){if(r)return t instanceof F?r=>t.style(e,n(r)):r=>t.style[e]=n(r);if(Array.isArray(e)){const r=e.length;return i=>{const s=n(i);if(null==s)for(let n=0;n<r;n++)t[n].removeAttribute(e);else for(let n=0;n<r;n++)t[n].setAttribute(e,s)}}return r=>{const i=n(r);null==i?t.removeAttribute(e):t.setAttribute(e,i)}}(e,n,l,s):null}function U(t,e,n,r){if(!r||"object"!=typeof r)return null;let i=null,s=null;return Array.isArray(r)?s=function(t){if(!t||!t.length)return null;for(let e=0;e<t.length;e++)t[e].e&&(t[e].e=z(t[e].e));return t.sort(H)}(r):(s=r.keys,i=r.data||null),s?W(t,e,n,s,i):null}function Y(t,e,n){if(!n)return null;const r=[];for(const i in n)if(n.hasOwnProperty(i)){const s=U(t,e,i,n[i]);s&&r.push(s)}return r.length?r:null}function X(t,e){if(!e.settings.duration||e.settings.duration<0)return null;const n=function(t,e){if(!e)return null;let n=[];if(Array.isArray(e)){const r=e.length;for(let i=0;i<r;i++){const r=e[i];if(2!==r.length)continue;let s=null;if("string"==typeof r[0])s=t.getElementById(r[0]);else if(Array.isArray(r[0])){s=[];for(let e=0;e<r[0].length;e++)if("string"==typeof r[0][e]){const n=t.getElementById(r[0][e]);n&&s.push(n)}s=s.length?1===s.length?s[0]:new F(s):null}if(!s)continue;const o=Y(t,s,r[1]);o&&(n=n.concat(o))}}else for(const r in e){if(!e.hasOwnProperty(r))continue;const i=t.getElementById(r);if(!i)continue;const s=Y(t,i,e[r]);s&&(n=n.concat(s))}return n.length?n:null}(t,e.elements);return n?function(t,e){const n=e.duration,r=t.length;let i=null;return(s,o)=>{const u=e.iterations||1/0,l=(e.alternate&&u%2==0)^e.direction>0?n:0;let a=s%n,c=1+(s-a)/n;o*=e.direction,e.alternate&&c%2==0&&(o=-o);let h=!1;if(c>u)a=l,h=!0,-1===e.fill&&(a=e.direction>0?0:n);else if(o<0&&(a=n-a),a===i)return!1;i=a;for(let e=0;e<r;e++)t[e](a);return h}}(n,e.settings):null}function Q(t,e=document,n=0){const r=function(t,e){const n=e.querySelectorAll("svg");for(let e=0;e<n.length;e++)if(n[e].id===t.root&&!n[e].svgatorAnimation)return n[e].svgatorAnimation=!0,n[e];return null}(t,e);if(r)return r;if(n>=20)return null;const i=function(t){const e=t=>t.shadowRoot;return document?Array.from(t.querySelectorAll(":not("+["a","area","audio","br","canvas","circle","datalist","embed","g","head","hr","iframe","img","input","link","object","path","polygon","rect","script","source","style","svg","title","track","video"].join()+")")).filter(e).map(e):[]}(e);for(let e=0;e<i.length;e++){const r=Q(t,i[e],n+1);if(r)return r}return null}function J(t,e=null,n=Number,r="undefined"!=typeof BigInt&&BigInt){const i="0x"+(t.replace(/[^0-9a-fA-F]+/g,"")||27);return e&&r&&n.isSafeInteger&&!n.isSafeInteger(+i)?n(r(i))%e+e:+i}function K(t,e,n){return!t||!n||e>t.length?t:t.substring(0,e)+K(t.substring(e+1),n,n)}function Z(t,e=27){return!t||t%e?t%e:[0,1].includes(e)?e:Z(t/e,e)}function tt(t,e,n){if(!t||!t.length)return;const r=J(n),i=Z(r)+5;let s=K(t,Z(r,5),i);return s=s.replace(/\x7c$/g,"==").replace(/\x2f$/g,"="),s=atob(s),s=s.replace(/[\x41-\x5A]/g,""),s=function(t,e,n){const r=+("0x"+t.substring(0,4));t=t.substring(4);const i=J(e,r)%r+n%27,s=[];for(let e=0;e<t.length;e+=2){if("|"===t[e]){const n=+("0x"+t.substring(e+1,e+1+4))-i;e+=3,s.push(n);continue}const n=+("0x"+t[e]+t[e+1])-i;s.push(n)}return String.fromCharCode(...s)}(s,e,r),s=JSON.parse(s),s}const et=[{key:"alternate",def:!1},{key:"fill",def:1},{key:"iterations",def:0},{key:"direction",def:1},{key:"speed",def:1},{key:"fps",def:100}];function nt(t){return r(t)+""}function rt(t,e=" "){return t&&t.length?t.map(nt).join(e):""}function it(t){return nt(t.x)+","+nt(t.y)}function st(t){return t?null==t.a||t.a>=1?function(t){if(!t)return"transparent";const e=t=>parseInt(t).toString(16).padStart(2,"0");return function(t){const e=[];let n="#"===t[0]?e.push("#"):0;for(;n<t.length;n+=2){if(t[n]!==t[n+1])return t;e.push(t[n])}return e.join("")}("#"+e(t.r)+e(t.g)+e(t.b)+(null==t.a||t.a>=1?"":e(255*t.a)))}(t):"rgba("+t.r+","+t.g+","+t.b+","+t.a+")":"transparent"}function ot(t){return t?"url(#"+t+")":"none"}!function(){for(var t=0,e=["ms","moz","webkit","o"],n=0;n<e.length&&!window.requestAnimationFrame;++n)window.requestAnimationFrame=window[e[n]+"RequestAnimationFrame"],window.cancelAnimationFrame=window[e[n]+"CancelAnimationFrame"]||window[e[n]+"CancelRequestAnimationFrame"];window.requestAnimationFrame||(window.requestAnimationFrame=function(e){var n=Date.now(),r=Math.max(0,16-(n-t)),i=window.setTimeout((function(){e(n+r)}),r);return t=n+r,i},window.cancelAnimationFrame=window.clearTimeout)}();var ut={f:null,i:O,u:(t,e)=>n=>{const r=e(n);t.setAttribute("rx",nt(r.x)),t.setAttribute("ry",nt(r.y))}},lt={f:null,i:function(t,e,n){return 0===t?e:1===t?n:{width:M(t,e.width,n.width),height:M(t,e.height,n.height)}},u:(t,e)=>n=>{const r=e(n);t.setAttribute("width",nt(r.width)),t.setAttribute("height",nt(r.height))}};Object.freeze({M:2,L:2,Z:0,H:1,V:1,C:6,Q:4,T:2,S:4,A:7});let at={},ct=null;function ht(t){let e=function(){if(ct)return ct;if("object"!=typeof document||!document.createElementNS)return{};let t=document.createElementNS("http://www.w3.org/2000/svg","svg");return t&&t.style?(t.style.position="absolute",t.style.opacity="0.01",t.style.zIndex="-9999",t.style.left="-9999px",t.style.width="1px",t.style.height="1px",ct={svg:t},ct):{}}().svg;if(!e)return function(t){return null};let n=document.createElementNS(e.namespaceURI,"path");n.setAttributeNS(null,"d",t),n.setAttributeNS(null,"fill","none"),n.setAttributeNS(null,"stroke","none"),e.appendChild(n);let r=n.getTotalLength();return function(t){let e=n.getPointAtLength(r*t);return{x:e.x,y:e.y}}}function ft(t,e,n,r,i=1){let s=function(t){return at[t]?at[t]:at[t]=ht(t)}(function(t,e,n,r){if(!t||!r)return!1;let i=["M",t.x,t.y];if(e&&n&&(i.push("C"),i.push(e.x),i.push(e.y),i.push(n.x),i.push(n.y)),e?!n:n){let t=e||n;i.push("Q"),i.push(t.x),i.push(t.y)}return e||n||i.push("L"),i.push(r.x),i.push(r.y),i.join(" ")}(t,e,n,r));try{return s(i)}catch(t){return null}}function dt(t,e,n){return t+(e-t)*n}function gt(t,e,n,r=!1){const i={x:dt(t.x,e.x,n),y:dt(t.y,e.y,n)};return r&&(i.a=function(t,e){return Math.atan2(e.y-t.y,e.x-t.x)}(t,e)),i}function mt(t,e,n,r){const i=1-r;return i*i*t+2*i*r*e+r*r*n}function pt(t,e,n,r){return 2*(1-r)*(e-t)+2*r*(n-e)}function yt(t,e,n,r,i=!1){let s=ft(t,e,null,n,r);return s||(s={x:mt(t.x,e.x,n.x,r),y:mt(t.y,e.y,n.y,r)}),i&&(s.a=function(t,e,n,r){return Math.atan2(pt(t.y,e.y,n.y,r),pt(t.x,e.x,n.x,r))}(t,e,n,r)),s}function _t(t,e,n,r,i){const s=i*i;return i*s*(r-t+3*(e-n))+3*s*(t+n-2*e)+3*i*(e-t)+t}function bt(t,e,n,r,i){const s=1-i;return 3*(s*s*(e-t)+2*s*i*(n-e)+i*i*(r-n))}function vt(t,e,n,r,i,s=!1){let o=ft(t,e,n,r,i);return o||(o={x:_t(t.x,e.x,n.x,r.x,i),y:_t(t.y,e.y,n.y,r.y,i)}),s&&(o.a=function(t,e,n,r,i){return Math.atan2(bt(t.y,e.y,n.y,r.y,i),bt(t.x,e.x,n.x,r.x,i))}(t,e,n,r,i)),o}function wt(t,e,n,r=!1){if(xt(e)){if(kt(n))return yt(e,n.start,n,t,r)}else if(xt(n)){if(St(e))return yt(e,e.end,n,t,r)}else{if(St(e))return kt(n)?vt(e,e.end,n.start,n,t,r):yt(e,e.end,n,t,r);if(kt(n))return yt(e,n.start,n,t,r)}return gt(e,n,t,r)}function At(t,e,n){const r=wt(t,e,n,!0);return r.a=u(function(t,e=!1){return e?t+Math.PI:t}(r.a)),r}function xt(t){return!t.type||"corner"===t.type}function kt(t){return null!=t.start&&!xt(t)}function St(t){return null!=t.end&&!xt(t)}const Et=new class{constructor(t=1,e=0,n=0,r=1,i=0,s=0){this.m=[t,e,n,r,i,s],this.i=null,this.w=null,this.s=null}get determinant(){const t=this.m;return t[0]*t[3]-t[1]*t[2]}get isIdentity(){if(null===this.i){const t=this.m;this.i=1===t[0]&&0===t[1]&&0===t[2]&&1===t[3]&&0===t[4]&&0===t[5]}return this.i}point(t,e){const n=this.m;return{x:n[0]*t+n[2]*e+n[4],y:n[1]*t+n[3]*e+n[5]}}translateSelf(t=0,e=0){if(!t&&!e)return this;const n=this.m;return n[4]+=n[0]*t+n[2]*e,n[5]+=n[1]*t+n[3]*e,this.w=this.s=this.i=null,this}rotateSelf(t=0){if(t%=360){t=o(t);const e=_(t),n=b(t),r=this.m,i=r[0],s=r[1];r[0]=i*n+r[2]*e,r[1]=s*n+r[3]*e,r[2]=r[2]*n-i*e,r[3]=r[3]*n-s*e,this.w=this.s=this.i=null}return this}scaleSelf(t=1,e=1){if(1!==t||1!==e){const n=this.m;n[0]*=t,n[1]*=t,n[2]*=e,n[3]*=e,this.w=this.s=this.i=null}return this}skewSelf(t,e){if(e%=360,(t%=360)||e){const n=this.m,r=n[0],i=n[1],s=n[2],u=n[3];t&&(t=A(o(t)),n[2]+=r*t,n[3]+=i*t),e&&(e=A(o(e)),n[0]+=s*e,n[1]+=u*e),this.w=this.s=this.i=null}return this}resetSelf(t=1,e=0,n=0,r=1,i=0,s=0){const o=this.m;return o[0]=t,o[1]=e,o[2]=n,o[3]=r,o[4]=i,o[5]=s,this.w=this.s=this.i=null,this}recomposeSelf(t=null,e=null,n=null,r=null,i=null){return this.isIdentity||this.resetSelf(),t&&(t.x||t.y)&&this.translateSelf(t.x,t.y),e&&this.rotateSelf(e),n&&(n.x&&this.skewSelf(n.x,0),n.y&&this.skewSelf(0,n.y)),!r||1===r.x&&1===r.y||this.scaleSelf(r.x,r.y),i&&(i.x||i.y)&&this.translateSelf(i.x,i.y),this}decompose(t=0,e=0){const n=this.m,i=n[0]*n[0]+n[1]*n[1],s=[[n[0],n[1]],[n[2],n[3]]];let o=k(i);if(0===o)return{origin:{x:r(n[4]),y:r(n[5])},translate:{x:r(t),y:r(e)},scale:{x:0,y:0},skew:{x:0,y:0},rotate:0};s[0][0]/=o,s[0][1]/=o;const l=n[0]*n[3]-n[1]*n[2]<0;l&&(o=-o);let a=s[0][0]*s[1][0]+s[0][1]*s[1][1];s[1][0]-=s[0][0]*a,s[1][1]-=s[0][1]*a;let c,h=k(s[1][0]*s[1][0]+s[1][1]*s[1][1]);return 0===h?{origin:{x:r(n[4]),y:r(n[5])},translate:{x:r(t),y:r(e)},scale:{x:r(o),y:0},skew:{x:0,y:0},rotate:0}:(s[1][0]/=h,s[1][1]/=h,a/=h,s[1][1]<0?(c=u(v(s[1][1])),s[0][1]<0&&(c=360-c)):c=u(w(s[0][1])),l&&(c=-c),a=u(x(a,k(s[0][0]*s[0][0]+s[0][1]*s[0][1]))),l&&(a=-a),{origin:{x:r(n[4]),y:r(n[5])},translate:{x:r(t),y:r(e)},scale:{x:r(o),y:r(h)},skew:{x:r(a),y:0},rotate:r(c)})}multiply(t){return this.clone().multiplySelf(t)}preMultiply(t){return t.multiply(this)}multiplySelf(t){const{a:e,b:n,c:r,d:i,tx:s,ty:o}=S(this.m,t.m);return this.resetSelf(e,n,r,i,s,o),this}preMultiplySelf(t){const{a:e,b:n,c:r,d:i,tx:s,ty:o}=S(t.m,this.m);return this.resetSelf(e,n,r,i,s,o),this}clone(){const t=this.m;return new this.constructor(t[0],t[1],t[2],t[3],t[4],t[5])}static create(t){return t?Array.isArray(t)?new this(...t):t instanceof this?t.clone():(new this).recomposeSelf(t.origin,t.rotate,t.skew,t.scale,t.translate):new this}toString(t=" ",e=!1){if(null===this.s){let n=this.m.map((t=>r(t)));e||1!==n[0]||0!==n[1]||0!==n[2]||1!==n[3]?this.s="matrix("+n.join(t)+")":this.s="translate("+n[4]+t+n[5]+")"}return this.s}};var It={f:function(t){return t?t.join(" "):""},i:function(t,e,n){if(0===t)return e;if(1===t)return n;let r=e.length;if(r!==n.length)return E(t,e,n);let i,s=new Array(r);for(let o=0;o<r;o++){if(i=typeof e[o],i!==typeof n[o])return E(t,e,n);if("number"===i)s[o]=I(t,e[o],n[o]);else{if(e[o]!==n[o])return E(t,e,n);s[o]=e[o]}}return s}},Mt={f:null,i:P,u:(t,e)=>n=>{const r=e(n);t.setAttribute("x1",nt(r[0])),t.setAttribute("y1",nt(r[1])),t.setAttribute("x2",nt(r[2])),t.setAttribute("y2",nt(r[3]))}},Nt={f:nt,i:I},Tt={f:nt,i:N},Ot={f:function(t,e=" "){return t&&t.length>0&&(t=t.map((t=>r(t,4)))),rt(t,e)},i:function(t,e,n){let i=e.length,s=n.length;if(i!==s)if(0===i)i=s,e=B(i,0);else if(0===s)s=i,n=B(i,0);else{const t=function(t,e){const n=t*e/function(t,e){let n;for(;e;)n=e,e=t%e,t=n;return t||1}(t,e);return n<0?-n:n}(i,s);e=j(e,Math.floor(t/i)),n=j(n,Math.floor(t/s)),i=s=t}let o=[];for(let s=0;s<i;s++)o.push(r(M(t,e[s],n[s])));return o}};function Rt(t,e,n){return t.map((t=>function(t,e,n){let i=t.v;if(!i||"g"!==i.t||i.s||!i.v||!i.r)return t;const s=n.getElementById(i.r),o=s&&s.querySelectorAll("stop")||[];return i.s=i.v.map(((t,e)=>{let n=o[e]&&o[e].getAttribute("offset");return n=r(parseInt(n)/100),{c:t,o:n}})),delete i.v,t}(t,0,n)))}const Ct={gt:"gradientTransform",c:{x:"cx",y:"cy"},rd:"r",f:{x:"x1",y:"y1"},to:{x:"x2",y:"y2"}};function Pt(t,e,n,r,i,s,o,u){return Rt(t,0,u),e=function(t,e,n){let r,i,s;const o=t.length-1,u={};for(let l=0;l<=o;l++)r=t[l],r.e&&(r.e=e(r.e)),r.v&&(i=r.v,"g"===i.t&&i.r&&(s=n.getElementById(i.r),s&&(u[i.r]={e:s,s:s.querySelectorAll("stop")})));return u}(t,r,u),r=>{const i=n(r,t,Bt);if(!i)return"none";if("c"===i.t)return st(i.v);if("g"===i.t){if(!e[i.r])return ot(i.r);const t=e[i.r];return function(t,e){let n=t.s;for(let r=n.length;r<e.length;r++){const e=n[n.length-1].cloneNode();e.id=Vt(e.id),t.e.appendChild(e),n=t.s=t.e.querySelectorAll("stop")}for(let t=0,r=n.length,i=e.length-1;t<r;t++)n[t].setAttribute("stop-color",st(e[Math.min(t,i)].c)),n[t].setAttribute("offset",e[Math.min(t,i)].o)}(t,i.s),Object.keys(Ct).forEach((e=>{if(void 0===i[e])return;if("object"==typeof Ct[e])return void Object.keys(Ct[e]).forEach((n=>{if(void 0===i[e][n])return;const r=i[e][n],s=Ct[e][n];t.e.setAttribute(s,r)}));const n="gt"===e?(r=i[e],Array.isArray(r)?"matrix("+r.join(" ")+")":""):i[e];var r;const s=Ct[e];t.e.setAttribute(s,n)})),ot(i.r)}return"none"}}function Bt(t,e,n){if(0===t)return e;if(1===t)return n;if(e&&n){const r=e.t;if(r===n.t)switch(e.t){case"c":return{t:r,v:C(t,e.v,n.v)};case"g":if(e.r===n.r){const i={t:r,s:jt(t,e.s,n.s),r:e.r};return e.gt&&n.gt&&(i.gt=P(t,e.gt,n.gt)),e.c?(i.c=T(t,e.c,n.c),i.rd=M(t,e.rd,n.rd)):e.f&&(i.f=T(t,e.f,n.f),i.to=T(t,e.to,n.to)),i}}if("c"===e.t&&"g"===n.t||"c"===n.t&&"g"===e.t){const r="c"===e.t?e:n,i="g"===e.t?{...e}:{...n},s=i.s.map((t=>({c:r.v,o:t.o})));return i.s="c"===e.t?jt(t,s,i.s):jt(t,i.s,s),i}}return E(t,e,n)}function jt(t,e,n){if(e.length===n.length)return e.map(((e,r)=>Ft(t,e,n[r])));const r=Math.max(e.length,n.length),i=[];for(let s=0;s<r;s++){const r=Ft(t,e[Math.min(s,e.length-1)],n[Math.min(s,n.length-1)]);i.push(r)}return i}function Ft(t,e,n){return{o:N(t,e.o,n.o||0),c:C(t,e.c,n.c||{})}}function Vt(t){return t.replace(/-fill-([0-9]+)$/,((t,e)=>"-fill-"+(+e+1)))}function Dt(t,e,n){return 0===t?e:1===t?n:{blur:O(t,e.blur,n.blur),offset:T(t,e.offset,n.offset),color:C(t,e.color,n.color)}}const Lt={blur:O,brightness:M,contrast:M,"drop-shadow":Dt,"inner-shadow":Dt,grayscale:M,"hue-rotate":I,invert:M,opacity:M,saturate:M,sepia:M};function qt(t,e,n){if(0===t)return e;if(1===t)return n;const r=e.length;if(r!==n.length)return E(t,e,n);const i=[];let s;for(let o=0;o<r;o++){if(e[o].type!==n[o].type)return e;if(s=Lt[e[o].type],!s)return E(t,e,n);i.push({type:e.type,value:s(t,e[o].value,n[o].value)})}return i}const zt={blur:t=>t?e=>{t.setAttribute("stdDeviation",it(e))}:null,brightness:(t,e,n)=>(t=Gt(n,e))?e=>{e=nt(e),t.map((t=>t.setAttribute("slope",e)))}:null,contrast:(t,e,n)=>(t=Gt(n,e))?e=>{const n=nt((1-e)/2);e=nt(e),t.map((t=>{t.setAttribute("slope",e),t.setAttribute("intercept",n)}))}:null,"drop-shadow"(t,e,n){const r=n.getElementById(e+"-blur");if(!r)return null;const i=n.getElementById(e+"-offset");if(!i)return null;const s=n.getElementById(e+"-flood");return s?t=>{r.setAttribute("stdDeviation",it(t.blur)),i.setAttribute("dx",nt(t.offset.x)),i.setAttribute("dy",nt(t.offset.y)),s.setAttribute("flood-color",st(t.color))}:null},"inner-shadow"(t,e,n){const r=n.getElementById(e+"-blur");if(!r)return null;const i=n.getElementById(e+"-offset");if(!i)return null;const s=n.getElementById(e+"-color-matrix");return s?t=>{r.setAttribute("stdDeviation",it(t.blur)),i.setAttribute("dx",nt(t.offset.x)),i.setAttribute("dy",nt(t.offset.y));const e=[0,0,0,0,t.color.r/255,0,0,0,0,t.color.g/255,0,0,0,0,t.color.b/255,0,0,0,t.color.a,0];s.setAttribute("values",rt(e))}:null},grayscale:t=>t?e=>{t.setAttribute("values",rt(function(t){return[.2126+.7874*(t=1-t),.7152-.7152*t,.0722-.0722*t,0,0,.2126-.2126*t,.7152+.2848*t,.0722-.0722*t,0,0,.2126-.2126*t,.7152-.7152*t,.0722+.9278*t,0,0,0,0,0,1,0]}(e)))}:null,"hue-rotate":t=>t?e=>t.setAttribute("values",nt(e)):null,invert:(t,e,n)=>(t=Gt(n,e))?e=>{e=nt(e)+" "+nt(1-e),t.map((t=>t.setAttribute("tableValues",e)))}:null,opacity:(t,e,n)=>(t=n.getElementById(e+"-A"))?e=>t.setAttribute("tableValues","0 "+nt(e)):null,saturate:t=>t?e=>t.setAttribute("values",nt(e)):null,sepia:t=>t?e=>t.setAttribute("values",rt(function(t){return[.393+.607*(t=1-t),.769-.769*t,.189-.189*t,0,0,.349-.349*t,.686+.314*t,.168-.168*t,0,0,.272-.272*t,.534-.534*t,.131+.869*t,0,0,0,0,0,1,0]}(e))):null};const $t=["R","G","B"];function Gt(t,e){const n=$t.map((n=>t.getElementById(e+"-"+n)||null));return-1!==n.indexOf(null)?null:n}var Ht={fill:Pt,"fill-opacity":Tt,stroke:Pt,"stroke-opacity":Tt,"stroke-width":Nt,"stroke-dashoffset":{f:nt,i:I},"stroke-dasharray":Ot,opacity:Tt,transform:function(t,e,n,r){if(!(t=function(t,e){if(!t||"object"!=typeof t)return null;let n=!1;for(const r in t)t.hasOwnProperty(r)&&(t[r]&&t[r].length?(t[r].forEach((t=>{t.e&&(t.e=e(t.e))})),n=!0):delete t[r]);return n?t:null}(t,r)))return null;const i=(r,i,s,o=null)=>t[r]?n(i,t[r],s):e&&e[r]?e[r]:o;return e&&e.a&&t.o?e=>{const r=n(e,t.o,At);return Et.recomposeSelf(r,i("r",e,I,0)+r.a,i("k",e,T),i("s",e,T),i("t",e,T)).toString()}:t=>Et.recomposeSelf(i("o",t,wt,null),i("r",t,I,0),i("k",t,T),i("s",t,T),i("t",t,T)).toString()},"#filter":function(t,e,n,r,i,s,o,u){if(!e.items||!t||!t.length)return null;const l=function(t,e){const n=(t=t.map((t=>t&&zt[t[0]]?(e.getElementById(t[1]),zt[t[0]](e.getElementById(t[1]),t[1],e)):null))).length;return e=>{for(let r=0;r<n;r++)t[r]&&t[r](e[r].value)}}(e.items,u);return l?(t=function(t,e){return t.map((t=>(t.e=e(t.e),t)))}(t,r),e=>{l(n(e,t,qt))}):null},"#line":Mt,points:{f:rt,i:P},d:It,r:Nt,"#size":lt,"#radius":ut,_(t,e){if(Array.isArray(t))for(let n=0;n<t.length;n++)this[t[n]]=e;else this[t]=e}};let Wt=function(t,e,n=n){let r=!1,i=null;return function(s){r&&clearTimeout(r),r=setTimeout((()=>function(){let s=0,o=n.innerHeight,u=0,l=n.innerWidth,a=t.parentNode;for(;a instanceof Element;){let t=n.getComputedStyle(a);if("visible"!==t.overflowY||"visible"!==t.overflowX){let e=a.getBoundingClientRect();"visible"!==t.overflowY&&(s=Math.max(s,e.top),o=Math.min(o,e.bottom)),"visible"!==t.overflowX&&(u=Math.max(u,e.left),l=Math.min(l,e.right))}if(a===a.parentNode)break;a=a.parentNode}r=!1;let c=t.getBoundingClientRect(),h=Math.min(c.height,Math.max(0,s-c.top)),f=Math.min(c.height,Math.max(0,c.bottom-o)),d=Math.min(c.width,Math.max(0,u-c.left)),g=Math.min(c.width,Math.max(0,c.right-l)),m=(c.height-h-f)/c.height,p=(c.width-d-g)/c.width,y=Math.round(m*p*100);null!==i&&i===y||(i=y,e(y))}()),100)}};class Ut{constructor(t,e,n){const r=function(t){var e,n;const r=t&&1===(null===(e=t.ownerDocument)||void 0===e||null===(n=e.childNodes)||void 0===n?void 0:n.length)&&window.parent!==window,i={el:t,window:window};if(!r)return i;let s;try{s=window.parent.document}catch(t){return i}return i.window=window.parent,i.el=Array.from(s.querySelectorAll("iframe,object")).filter((t=>t.contentWindow===window))[0]||i.el,i}(t);e=Math.max(1,e||1),e=Math.min(e,100),this.el=r.el,this._handlers=[],this.onThresholdChange=n&&n.call?n:()=>{},this.thresholdPercent=e||1,this.currentVisibility=null,this.visibilityCalculator=Wt(this.el,this.onVisibilityUpdate.bind(this),r.window),this.bindScrollWatchers(),this.visibilityCalculator()}bindScrollWatchers(){let t=this.el.parentNode;for(;t&&(this._handlers.push({element:t,event:"scroll",handler:this.visibilityCalculator}),t.addEventListener("scroll",this.visibilityCalculator),t!==t.parentNode&&t!==document);)t=t.parentNode}onVisibilityUpdate(t){let e=this.currentVisibility>=this.thresholdPercent,n=t>=this.thresholdPercent;if(null===this.currentVisibility||e!==n)return this.currentVisibility=t,void this.onThresholdChange(n);this.currentVisibility=t}destruct(){this._handlers.forEach((t=>{t.element.removeEventListener(t.event,t.handler)}))}}class Yt{static adjustLink(t){var e,n;const r=t&&1===(null===(e=t.ownerDocument)||void 0===e||null===(n=e.childNodes)||void 0===n?void 0:n.length)&&window.parent!==window,i=null==t?void 0:t.firstElementChild;r&&i&&"a"===i.tagName&&!i.getAttribute("target")&&i.setAttributeNS(null,"target","_parent")}static autoPlay(t,e,n,r=[]){if("click"===n.start){const i=()=>{switch(n.click){case"freeze":return!t._running&&t.reachedToEnd()?t.restart():t.toggle();case"restart":return t.offset>0?t.restart():t.play();case"reverse":return t._running?t.reverse():t.reachedToEnd()?1===t.fill?t.reverse(!0):t.restart():t.play();case"none":default:if(t._running)return;return t.reachedToEnd()?t.restart():t.play()}};return r.push({element:e,event:"click",handler:i}),void e.addEventListener("click",i)}if("hover"===n.start){const i=()=>t.reachedToEnd()?t.restart():t._rollingBack?t.reverse():t.play();r.push({element:e,event:"mouseenter",handler:i}),e.addEventListener("mouseenter",i);const s=()=>{switch(n.hover){case"freeze":return t.pause();case"reset":return t.stop();case"reverse":if(t.reverse(),t._running)return;return t.play();case"none":default:return}};return r.push({element:e,event:"mouseleave",handler:s}),void e.addEventListener("mouseleave",s)}if("scroll"!==n.start)"programmatic"!==n.start&&t.play();else{const i=new Ut(e,n.scroll||25,(function(e){e?t.reachedToEnd()?t.restart():t.play():t.pause()}));r.push({callback:()=>i.destruct()})}}}class Xt extends class{_svg;_rootId;constructor(t){this._id=0,this._running=!1,this._rollingBack=!1,this._animations=t.animations,this._settings=t.animationSettings,t.version<"2022-05-02"&&delete this._settings.speed,et.forEach((t=>{this._settings[t.key]=this._settings[t.key]||t.def})),this.duration=t.animationSettings.duration,this.offset=t.animationSettings.offset||0,this.rollbackStartOffset=0,this._rootId=t.root,this._svg=t.svg,this._originalAnimations=t.originalAnimations,this._frameTimingChecker=new h(this)}get alternate(){return this._settings.alternate}get fill(){return this._settings.fill}get iterations(){return this._settings.iterations}get direction(){return this._settings.direction}get speed(){return this._settings.speed}get fps(){return this._settings.fps}get watermarkData(){return this._settings.w}get rootId(){return this._rootId}get svg(){return this._svg}get originalAnimations(){return this._originalAnimations}get maxFiniteDuration(){return this.iterations>0?this.iterations*this.duration:this.duration}_apply(t,e={}){const n=this._animations,r=n.length;let i=0;for(let s=0;s<r;s++)e[s]?i++:(e[s]=n[s](t,1),e[s]&&i++);return i}_rollback(t){let e=1/0,n=null;this.rollbackStartOffset=t,this._rollingBack=!0,this._running=!0;const r=i=>{if(!this._rollingBack)return;null==n&&(n=i);let s=Math.round(t-(i-n)*this.speed);if(s>this.duration&&e!==1/0){const t=!!this.alternate&&s/this.duration%2>1;let e=s%this.duration;e+=t?this.duration:0,s=e||this.duration}const o=(this.fps?1e3/this.fps:0)*this.speed,u=Math.max(0,s);u<=e-o&&(this.offset=u,e=u,this._apply(u));const l=this.iterations>0&&-1===this.fill&&s>=this.maxFiniteDuration;(s<=0||this.offset<s||l)&&this.stop(),this._id=window.requestAnimationFrame(r)};this._id=window.requestAnimationFrame(r)}_start(t=0){let e,n=-1/0;const r={};this._running=!0;const i=s=>{e??=s;const o=Math.round((s-e)*this.speed+t),u=(this.fps?1e3/this.fps:0)*this.speed;if(o>=n+u&&!this._rollingBack){this._frameTimingChecker.checkFrame(s),this.offset=o,n=o;if(this._apply(o,r)===this._animations.length)return void this.pause(!0)}this._id=window.requestAnimationFrame(i)};this._id=window.requestAnimationFrame(i)}_pause(){this._id&&window.cancelAnimationFrame(this._id),this._running=!1}play(){if(!this._running)return this._rollingBack?this._rollback(this.offset):this._start(this.offset)}stop(){this._pause(),this.offset=0,this.rollbackStartOffset=0,this._rollingBack=!1,this._apply(0)}reachedToEnd(){return this.iterations>0&&this.offset>=this.iterations*this.duration}restart(t=!1){this.stop(t),this.play(t)}pause(){this._pause()}toggle(){return this._running?this.pause():this.reachedToEnd()?this.restart():this.play()}trigger(t,e){}_adjustOffset(t=!1){const e=this.alternate?2*this.duration:this.duration;if(t){if(!this._rollingBack&&0===this.offset)return void(this.offset=e);this._rollingBack&&(this.offset,this.maxFiniteDuration)}!this._rollingBack||this.rollbackStartOffset<=this.duration?0!==this.iterations&&(this.offset=Math.min(this.offset,this.maxFiniteDuration)):(this.offset=this.rollbackStartOffset-(this.rollbackStartOffset-this.offset)%e,this.rollbackStartOffset=0)}reverse(t=!1){if(!this._running)return this._adjustOffset(t),this._rollingBack=!this._rollingBack,t&&this.play(!1),void this.trigger("reverse",this.offset);this.pause(!1,!1),this._adjustOffset(),this._rollingBack=!this._rollingBack,this.play(!1),this.trigger("reverse",this.offset)}static build(t,e){if(delete t.animationSettings,t.options=tt(t.options,t.root,"5c7f360c"),t.animations.map((e=>{e.settings=tt(e.s,t.root,"5c7f360c"),delete e.s,t.animationSettings||(t.animationSettings=e.settings)})),Object.assign(t,{originalAnimations:t.animations},function(t,e){if(L=e,!t||!t.root||!Array.isArray(t.animations))return null;const n=Q(t);if(!n)return null;const r=t.animations.map((t=>X(n,t))).filter((t=>!!t));return r.length?{svg:n,animations:r}:null}(t,e)),!t)return null;const n=t.options||{},r=new this(t);return{el:t.svg,options:n,player:r}}static push(t){return this.build(t)}static init(){const t=window.__SVGATOR_PLAYER__&&window.__SVGATOR_PLAYER__["5c7f360c"];Array.isArray(t)&&t.splice(0).forEach((t=>this.build(t)))}}{static build(t){let e=super.build(t,Ht);if(!e)return null;let{el:n,options:r,player:i}=e;Yt.adjustLink(n),Yt.autoPlay(i,n,r)}}return Xt.init(),Xt}));
(function(s,i,o,w,d,a,b){w[o]=w[o]||{};w[o][s]=w[o][s]||[];w[o][s].push(i);})('5c7f360c',{"root":"ePH6Ulaq5XZ1","version":"2025-02-04","animations":[{"elements":{"ePH6Ulaq5XZ50":{"opacity":[{"t":0,"v":0},{"t":900,"v":1}]},"ePH6Ulaq5XZ51":{"opacity":[{"t":900,"v":0},{"t":1900,"v":1}]},"ePH6Ulaq5XZ52":{"opacity":[{"t":1900,"v":0},{"t":3000,"v":1}]},"ePH6Ulaq5XZ53":{"opacity":[{"t":3000,"v":0},{"t":4000,"v":1}]},"ePH6Ulaq5XZ54":{"opacity":[{"t":4000,"v":0},{"t":5000,"v":1}]},"ePH6Ulaq5XZ55":{"opacity":[{"t":5000,"v":0},{"t":6000,"v":1}]},"ePH6Ulaq5XZ56":{"opacity":[{"t":6000,"v":0},{"t":7000,"v":1}]},"ePH6Ulaq5XZ69":{"transform":{"data":{"o":{"x":135.33781,"y":207.03926,"type":"corner"},"t":{"x":-135.33781,"y":-207.03926}},"keys":{"r":[{"t":0,"v":720,"e":[0.415,0.08,0.115,0.955]},{"t":15400,"v":0,"e":[1,0]}]}},"fill":[{"t":0,"v":{"t":"c","v":{"r":210,"g":219,"b":237,"a":1}}},{"t":15400,"v":{"t":"c","v":{"r":210,"g":219,"b":236,"a":1}}}]},"ePH6Ulaq5XZ70":{"transform":{"data":{"o":{"x":11.12,"y":29.9,"type":"corner"},"s":{"x":0.3,"y":0.3},"t":{"x":-95.902813,"y":-108.465}},"keys":{"r":[{"t":0,"v":-720,"e":[0.415,0.08,0.115,0.955]},{"t":15400,"v":0,"e":[1,0]}]}}}},"s":"MHDBjZThjMzM3NTg2ODIM3Mjg1N2E4MDdmMzME0Ylg0ODQxUjQxNDEzEZDMzNzU3YTgzRzc2NYzQ4NTdhODA3ZjMzNGTJPNDIzZDMzN2E4NTcR2ODM3Mjg1N2E4MDdmXTjg0MzM0YjQxM2QzMNzc3N2E3ZDdkMzM0YjJQyRzNkMzM3MjdkODUF3NkY4MzdmNzI4NVM3BNjMzNGI3NzcyN2Q4NTDc2M2QzM1A4NFA4MTUc2NzY3NTMzNGI0MzNXkMzM3NzgxODRGMzM0YYjQyNDE0MUQzZDMzOLDgzMzRiNmMzMzQyNDDg0OTQxNDI0MUU0NjRShNzQ0NzQxNDk3MzQxQNzQ0MzQ0NDI3NTQxNEzQ3NTcyNDc3NTQ4NzYRYNDY0NzRhNDI0NTQMxQzQ3NzU0MTQ5NDQ0VNkg0OTQ2NDU3NDc3UTzQ4NzY0MTQ1NDc3NzVQxNDc3NDQ2NzY3NjQQ5NDg0M1g0YTQyNDM0GNzQ5MzMzZEwzMzQ3NRDQzMzNkMzM0NzQ1MzJMzZDMzNDdMNDYzMzNMkMzM0N0Q0NzMzM2RSLMzM0NzQ4QTMzM2QzMJzQ3NDkzMzNkMzM0NzVRhQTMzM2QzMzQ4QjQSxMzM2ZThl"}],"options":"MDDAxMDg4UjJmODA4MTIZlUjdmODEyZjQ3STJPmNzk3YzZlNzEyZjhhE"},'__SVGATOR_PLAYER__',window,document)
]]></script>
</svg>
