<svg width="90" height="51" viewBox="0 0 90 51" fill="none" xmlns="http://www.w3.org/2000/svg">
<path opacity="0.4" d="M45.8854 50.6196C68.9564 50.6196 87.6591 48.8919 87.6591 46.7606C87.6591 44.6293 68.9564 42.9015 45.8854 42.9015C22.8145 42.9015 4.11176 44.6293 4.11176 46.7606C4.11176 48.8919 22.8145 50.6196 45.8854 50.6196Z" fill="url(#paint0_radial_2001_68)"/>
<path d="M6.56707 27.8774C8.38547 31.4463 12.0421 33.6997 16.0438 33.7247L16.0433 33.7259H16.1115H26.4266H26.4947L26.494 33.7247C27.6149 33.7176 28.7087 33.5362 29.7426 33.1995C27.087 32.3346 24.8263 30.4489 23.5169 27.882L19.9274 20.8258C18.0987 17.2368 14.4112 14.9773 10.3833 14.9773H0L6.56707 27.8774Z" fill="url(#paint1_linear_2001_68)"/>
<g opacity="0.5">
<mask id="mask0_2001_68" style="mask-type:luminance" maskUnits="userSpaceOnUse" x="0" y="14" width="30" height="20">
<path d="M6.56707 27.8774C8.38547 31.4463 12.0421 33.6997 16.0438 33.7247L16.0433 33.7259H16.1115H26.4266H26.4947L26.494 33.7247C27.6149 33.7176 28.7087 33.5362 29.7426 33.1995C27.087 32.3346 24.8263 30.4489 23.5169 27.882L19.9274 20.8258C18.0987 17.2368 14.4112 14.9773 10.3833 14.9773H0L6.56707 27.8774Z" fill="white"/>
</mask>
<g mask="url(#mask0_2001_68)">
<g opacity="0.2">
<path d="M38.3271 26.8057C38.2475 26.2741 38.4249 25.7365 38.805 25.3564L40.2164 23.945C40.1999 23.6975 40.1867 23.448 40.1762 23.1971L10.6152 32.1987C11.3038 32.6096 12.0371 32.9464 12.8048 33.1956C12.8029 33.1968 12.8009 33.198 12.7987 33.1993C12.8813 33.2262 12.9651 33.2505 13.0484 33.2755C13.0877 33.2872 13.1264 33.3 13.1656 33.3113C13.3609 33.3671 13.5587 33.4161 13.7579 33.461C13.8047 33.4715 13.8513 33.4823 13.8983 33.4924C14.0966 33.5343 14.2966 33.5703 14.498 33.6009C14.5446 33.608 14.5914 33.6144 14.6384 33.621C14.8445 33.6497 15.0519 33.6735 15.2609 33.6899C15.2972 33.6928 15.3337 33.6943 15.37 33.697C15.5878 33.7122 15.8064 33.7222 16.0265 33.724C16.0321 33.724 16.0378 33.7247 16.0434 33.7247L16.0427 33.7259H16.0464H16.0564H16.1108H21.9275L38.6732 29.1211L38.3271 26.8057Z" fill="white"/>
<path d="M40.3543 19.1177C40.7043 16.3661 41.5015 13.9502 42.5923 12.1612C42.7822 11.8497 42.9817 11.5588 43.1883 11.2866L23.2369 18.482L23.5302 19.0579L22.8641 20.3653C22.7776 20.5165 22.6931 20.6692 22.6134 20.8256L21.2702 23.4662L19.927 20.8256C19.841 20.6567 19.7493 20.4915 19.6552 20.3288L19.654 20.3332C19.5641 20.1774 19.467 20.0269 19.3697 19.8767L5.11145 25.0189L6.56666 27.8774C7.23153 29.1824 8.14367 30.3092 9.22785 31.2162L40.1661 21.5208C40.1911 20.6976 40.2553 19.895 40.3543 19.1177Z" fill="white"/>
</g>
</g>
</g>
<path opacity="0.2" d="M26.0193 31.0848C25.0054 30.2011 24.1494 29.1218 23.5169 27.882L19.9274 20.8258C19.8414 20.657 19.7497 20.4918 19.6556 20.3291L17.8571 26.7618C17.078 29.536 15.2324 31.8296 12.7986 33.1998C13.8787 33.3267 14.9866 33.2892 16.0872 33.0758L16.0867 33.0772L16.0965 33.0753L16.1534 33.064L26.0193 31.0848Z" fill="black"/>
<path d="M39.8051 0.000244933C35.7771 0.000244933 32.0896 2.26001 30.2609 5.84878L22.8643 20.3653C22.7778 20.5165 22.6932 20.6692 22.6136 20.8256L19.0241 27.8818C17.7147 30.4486 15.454 32.3344 12.7984 33.1993C13.8323 33.536 14.9261 33.7173 16.047 33.7245L16.0463 33.7257H16.0563H26.4396H26.4974L26.4969 33.7247C30.5026 33.7034 34.1636 31.449 35.9835 27.8771L40.3207 19.365C40.8206 15.0736 42.406 11.5608 44.5008 9.92351C44.7005 9.7674 44.9615 9.72746 45.1931 9.8022L50.1876 0L39.8051 0.000244933Z" fill="url(#paint2_linear_2001_68)"/>
<path opacity="0.2" d="M35.9843 27.8774L38.9717 22.0142C39.0435 21.5586 39.1242 21.1094 39.2185 20.6722L35.4847 11.7292C34.4367 9.21919 32.497 7.2508 30.1113 6.14236L22.7887 20.5136L28.1113 33.2618C28.1549 33.3662 28.2005 33.4693 28.2473 33.572C31.5457 33.0076 34.4336 30.9209 35.9843 27.8774Z" fill="black"/>
<path opacity="0.2" d="M39.8222 0.931996L39.7568 0.913372L39.757 0.914841C38.6773 0.613408 37.5759 0.487199 36.4893 0.526655C38.805 2.08822 40.4599 4.52272 41.0135 7.35055L41.637 10.5448C41.7382 11.0626 41.9884 11.5481 42.3856 11.8956C42.4266 11.9314 42.4641 11.972 42.4969 12.0174C42.5302 12.0632 42.5604 12.1139 42.5927 12.1612C43.1581 11.2339 43.8004 10.4715 44.5018 9.92352C44.7015 9.76741 44.9625 9.72746 45.1941 9.80221L48.4562 3.40031L39.8222 0.931996Z" fill="black"/>
<path d="M44.9627 30.7542C43.8462 30.7542 42.7505 30.6866 41.6805 30.5579C41.5229 30.1813 41.3801 29.7828 41.244 29.375L40.0863 32.4276C39.9094 32.8947 39.2271 32.8214 39.1531 32.3273L38.327 26.806C38.2476 26.2744 38.4248 25.7367 38.8049 25.3566L40.2162 23.9453C40.1795 23.3939 40.1542 22.8354 40.1542 22.2646C40.1542 21.0925 40.2346 19.9566 40.3839 18.8736L35.9842 10.2387C34.1555 6.64966 30.4679 4.39014 26.44 4.39014H16.0568L30.2609 32.2673C32.0896 35.8563 35.7768 38.1158 39.805 38.1158H50.1883L46.4167 30.7136C45.9361 30.7388 45.4516 30.7542 44.9627 30.7542Z" fill="url(#paint3_linear_2001_68)"/>
<g opacity="0.5">
<mask id="mask1_2001_68" style="mask-type:luminance" maskUnits="userSpaceOnUse" x="16" y="4" width="35" height="35">
<path d="M44.9627 30.7542C43.8462 30.7542 42.7505 30.6866 41.6805 30.5579C41.5229 30.1813 41.3801 29.7828 41.244 29.375L40.0863 32.4276C39.9094 32.8947 39.2271 32.8214 39.1531 32.3273L38.327 26.806C38.2476 26.2744 38.4248 25.7367 38.8049 25.3566L40.2162 23.9453C40.1795 23.3939 40.1542 22.8354 40.1542 22.2646C40.1542 21.0925 40.2346 19.9566 40.3839 18.8736L35.9842 10.2387C34.1555 6.64966 30.4679 4.39014 26.44 4.39014H16.0568L30.2609 32.2673C32.0896 35.8563 35.7768 38.1158 39.805 38.1158H50.1883L46.4167 30.7136C45.9361 30.7388 45.4516 30.7542 44.9627 30.7542Z" fill="white"/>
</mask>
<g mask="url(#mask1_2001_68)">
<g opacity="0.2">
<path d="M83.4327 10.2384C83.4009 10.1762 83.3643 10.1174 83.3315 10.0558L49.6899 20.3002C49.7409 20.9415 49.771 21.5958 49.771 22.2644C49.771 22.5006 49.7644 22.7334 49.7568 22.9655C49.7499 23.1542 49.7416 23.3422 49.7313 23.5292C49.7237 23.6679 49.7181 23.8073 49.709 23.945L51.1203 25.3564C51.2061 25.4422 51.2801 25.537 51.3446 25.637L67.4854 21.1986L66.3947 19.0579L67.221 17.4361L68.685 14.5626L70.0724 17.29C70.5819 18.2899 71.2399 19.1822 72.0052 19.9556L86.3689 16.0058L83.4327 10.2384Z" fill="white"/>
<path d="M38.3273 26.8057C38.2476 26.2741 38.425 25.7365 38.8051 25.3564L40.2165 23.945C40.2001 23.6975 40.1868 23.448 40.1763 23.1971L10.6153 32.1987C11.3039 32.6096 12.0372 32.9464 12.805 33.1956C12.803 33.1968 12.8011 33.198 12.7988 33.1993C12.8814 33.2262 12.9652 33.2505 13.0486 33.2755C13.0878 33.2872 13.1265 33.3 13.1657 33.3113C13.361 33.3671 13.5588 33.4161 13.758 33.461C13.8048 33.4715 13.8514 33.4823 13.8985 33.4924C14.0967 33.5343 14.2967 33.5703 14.4981 33.6009C14.5447 33.608 14.5915 33.6144 14.6386 33.621C14.8447 33.6497 15.052 33.6735 15.261 33.6899C15.2973 33.6928 15.3338 33.6943 15.3701 33.697C15.588 33.7122 15.8066 33.7222 16.0266 33.724C16.0323 33.724 16.0379 33.7247 16.0435 33.7247L16.0428 33.7259H16.0465H16.0565H16.1109H21.9276L38.6733 29.1211L38.3273 26.8057Z" fill="white"/>
<path d="M40.3545 19.1177C40.7044 16.3661 41.5016 13.9502 42.5924 12.1612C42.7823 11.8497 42.9818 11.5588 43.1884 11.2866L23.237 18.482L23.5303 19.0579L22.8643 20.3653C22.7777 20.5165 22.6932 20.6692 22.6135 20.8256L21.2703 23.4662L19.9271 20.8256C19.8411 20.6567 19.7494 20.4915 19.6553 20.3288L19.6541 20.3332C19.5642 20.1774 19.4671 20.0269 19.3698 19.8767L5.11157 25.0189L6.56678 27.8774C7.23165 29.1824 8.14379 30.3092 9.22797 31.2162L40.1662 21.5208C40.1912 20.6976 40.2555 19.895 40.3545 19.1177Z" fill="white"/>
<path d="M49.496 18.5972L82.2018 8.34773C80.2067 5.89216 77.1948 4.41146 73.9562 4.39112L73.957 4.38989H73.8888H73.8687H63.5737H63.5056H63.4855C63.4176 4.38989 63.3507 4.39577 63.2828 4.397C63.1973 4.3992 63.1115 4.40166 63.0262 4.40607C62.6841 4.42077 62.3449 4.45263 62.0097 4.49895L45.8759 10.3176C47.622 11.9688 48.951 14.9663 49.496 18.5972Z" fill="white"/>
</g>
</g>
</g>
<path opacity="0.2" d="M39.8254 37.2118L48.5035 34.8089L46.4168 30.7136C45.9362 30.7391 45.4517 30.7543 44.9628 30.7543C43.8462 30.7543 42.7505 30.6866 41.6806 30.558C41.5507 30.2477 41.4323 29.9203 41.3181 29.587L41.0701 30.8035C40.4932 33.6267 38.8177 36.0472 36.4893 37.5894C37.5757 37.638 38.6783 37.5208 39.7602 37.2287L39.76 37.2302L39.8254 37.2118Z" fill="black"/>
<path d="M63.485 4.38989C59.4571 4.38989 55.7696 6.64966 53.9409 10.2384L49.5412 18.8734C49.6904 19.9563 49.7708 21.0922 49.7708 22.2644C49.7708 22.8351 49.7456 23.3936 49.7088 23.945L51.1202 25.3564C51.5003 25.7365 51.6774 26.2742 51.598 26.8057L50.7719 32.3271C50.6979 32.8211 50.0159 32.8942 49.8387 32.4273L48.681 29.3748C48.545 29.7825 48.4021 30.1813 48.2445 30.5577C47.1746 30.6864 46.0789 30.754 44.9623 30.754C44.4734 30.754 43.9889 30.7388 43.5084 30.7133L42.7143 32.2715C41.4049 34.8383 39.1442 36.7241 36.4886 37.5889C37.5226 37.9256 38.6163 38.107 39.7373 38.1141L39.7365 38.1153H39.8047H50.1198H50.1879L50.1872 38.1141C54.1889 38.0889 57.8453 35.8355 59.6639 32.2666L73.868 4.3894H63.485V4.38989Z" fill="url(#paint4_linear_2001_68)"/>
<path opacity="0.2" d="M59.2546 7.39322C58.9999 6.79795 58.6946 6.2343 58.3456 5.7052C56.489 6.72076 54.9384 8.28135 53.941 10.2385L49.5413 18.8734C49.6906 19.9564 49.771 21.0922 49.771 22.2644C49.771 22.693 49.754 23.1128 49.7313 23.5297L50.0582 24.2943L51.1203 25.3564C51.5004 25.7365 51.6776 26.2742 51.5982 26.8057L51.4774 27.6132L52.065 28.9876C53.2014 31.6451 55.3386 33.684 57.94 34.7236C58.6176 33.9999 59.2009 33.1765 59.6643 32.2668L65.2242 21.3552L59.2546 7.39322Z" fill="black"/>
<path d="M59.6644 5.84878C57.846 2.27986 54.1894 0.0264685 50.1877 0.00122653L50.1884 0H50.1203H39.8051H39.737L39.7378 0.00122653C38.6168 0.00833349 37.5231 0.189683 36.4891 0.526405C39.1447 1.39125 41.4054 3.27704 42.7148 5.84388L44.7315 9.80196C44.9631 9.72721 45.2241 9.76692 45.4238 9.92327C47.5186 11.5606 49.104 15.0734 49.6039 19.3647L53.9411 27.8771C55.7698 31.4662 59.4573 33.7257 63.4853 33.7257H73.8685L59.6644 5.84878Z" fill="url(#paint5_linear_2001_68)"/>
<path d="M44.9629 19.5802C46.0811 19.5802 46.9876 18.6737 46.9876 17.5554C46.9876 16.4372 46.0811 15.5307 44.9629 15.5307C43.8446 15.5307 42.9381 16.4372 42.9381 17.5554C42.9381 18.6737 43.8446 19.5802 44.9629 19.5802Z" fill="url(#paint6_linear_2001_68)"/>
<path opacity="0.2" d="M63.6138 5.00478L63.5469 4.99228L63.5474 4.99375C62.4441 4.79574 61.3356 4.77417 60.2576 4.91631C62.7104 6.25217 64.5882 8.51929 65.4064 11.2822L67.2212 17.4361L72.695 6.6928L63.6138 5.00478Z" fill="black"/>
<path d="M83.4327 10.2384C81.6143 6.66951 77.9576 4.41611 73.9562 4.39112L73.9566 4.38989H73.8885H63.5734H63.5053L63.506 4.39136C62.3851 4.39847 61.2913 4.57958 60.2574 4.91654C62.9129 5.78139 65.1734 7.66718 66.4831 10.234L70.0726 17.2902C71.9013 20.8793 75.5888 23.1388 79.6167 23.1388H90L83.4327 10.2384Z" fill="url(#paint7_linear_2001_68)"/>
<g opacity="0.5">
<mask id="mask2_2001_68" style="mask-type:luminance" maskUnits="userSpaceOnUse" x="60" y="4" width="30" height="20">
<path d="M83.4327 10.2384C81.6143 6.66951 77.9576 4.41611 73.9562 4.39112L73.9566 4.38989H73.8885H63.5734H63.5053L63.506 4.39136C62.3851 4.39847 61.2913 4.57958 60.2574 4.91654C62.9129 5.78139 65.1734 7.66718 66.4831 10.234L70.0726 17.2902C71.9013 20.8793 75.5888 23.1388 79.6167 23.1388H90L83.4327 10.2384Z" fill="white"/>
</mask>
<g mask="url(#mask2_2001_68)">
<g opacity="0.2">
<path d="M83.4326 10.2384C83.4008 10.1762 83.3643 10.1174 83.3314 10.0558L49.6898 20.3002C49.7408 20.9415 49.7709 21.5958 49.7709 22.2644C49.7709 22.5006 49.7643 22.7334 49.7567 22.9655C49.7499 23.1542 49.7415 23.3422 49.7312 23.5292C49.7236 23.6679 49.718 23.8073 49.7089 23.945L51.1203 25.3564C51.2061 25.4422 51.2801 25.537 51.3445 25.637L67.4854 21.1986L66.3946 19.0579L67.221 17.4361L68.685 14.5626L70.0723 17.29C70.5818 18.2899 71.2398 19.1822 72.0052 19.9556L86.3688 16.0058L83.4326 10.2384Z" fill="white"/>
<path d="M49.496 18.5972L82.2017 8.34776C80.2066 5.89219 77.1947 4.41149 73.9562 4.39115L73.9569 4.38992H73.8888H73.8687H63.5736H63.5055H63.4854C63.4175 4.38992 63.3506 4.3958 63.2827 4.39703C63.1972 4.39924 63.1114 4.40169 63.0262 4.4061C62.684 4.4208 62.3449 4.45266 62.0096 4.49898L45.8759 10.3176C47.622 11.9689 48.951 14.9663 49.496 18.5972Z" fill="white"/>
</g>
</g>
</g>
<g opacity="0.5">
<mask id="mask3_2001_68" style="mask-type:luminance" maskUnits="userSpaceOnUse" x="36" y="0" width="38" height="34">
<path d="M59.6644 5.84878C57.846 2.27986 54.1894 0.0264685 50.1877 0.00122653L50.1884 0H50.1203H39.8051H39.737L39.7378 0.00122653C38.6168 0.00833349 37.5231 0.189683 36.4891 0.526405C39.1447 1.39125 41.4054 3.27704 42.7148 5.84388L44.7315 9.80196C44.9631 9.72722 45.2241 9.76692 45.4238 9.92327C47.5186 11.5606 49.104 15.0734 49.6039 19.3647L53.9411 27.8771C55.7698 31.4662 59.4573 33.7257 63.4853 33.7257H73.8685L59.6644 5.84878Z" fill="white"/>
</mask>
<g mask="url(#mask3_2001_68)">
<g opacity="0.2">
<path d="M83.4327 10.2384C83.4009 10.1762 83.3643 10.1174 83.3315 10.0558L49.6899 20.3002C49.7409 20.9415 49.771 21.5958 49.771 22.2644C49.771 22.5006 49.7644 22.7334 49.7568 22.9655C49.7499 23.1542 49.7416 23.3422 49.7313 23.5292C49.7237 23.6679 49.7181 23.8073 49.709 23.945L51.1203 25.3564C51.2061 25.4422 51.2801 25.537 51.3446 25.637L67.4854 21.1986L66.3947 19.0579L67.221 17.4361L68.685 14.5626L70.0724 17.29C70.5819 18.2899 71.2399 19.1822 72.0052 19.9556L86.3689 16.0058L83.4327 10.2384Z" fill="white"/>
<path d="M38.3273 26.8057C38.2476 26.2741 38.425 25.7365 38.8051 25.3564L40.2165 23.945C40.2001 23.6975 40.1868 23.448 40.1763 23.1971L10.6153 32.1987C11.3039 32.6096 12.0372 32.9464 12.805 33.1956C12.803 33.1968 12.8011 33.198 12.7988 33.1993C12.8814 33.2262 12.9652 33.2505 13.0486 33.2755C13.0878 33.2872 13.1265 33.3 13.1657 33.3113C13.361 33.3671 13.5588 33.4161 13.758 33.461C13.8048 33.4715 13.8514 33.4823 13.8985 33.4924C14.0967 33.5343 14.2967 33.5703 14.4981 33.6009C14.5447 33.608 14.5915 33.6144 14.6386 33.621C14.8447 33.6497 15.052 33.6735 15.261 33.6899C15.2973 33.6928 15.3338 33.6943 15.3701 33.697C15.588 33.7122 15.8066 33.7222 16.0266 33.724C16.0323 33.724 16.0379 33.7247 16.0435 33.7247L16.0428 33.7259H16.0465H16.0565H16.1109H21.9276L38.6733 29.1211L38.3273 26.8057Z" fill="white"/>
<path d="M40.3545 19.1177C40.7044 16.3661 41.5016 13.9502 42.5924 12.1612C42.7823 11.8497 42.9818 11.5588 43.1884 11.2866L23.237 18.482L23.5303 19.0579L22.8643 20.3653C22.7777 20.5165 22.6932 20.6692 22.6135 20.8256L21.2703 23.4662L19.9271 20.8256C19.8411 20.6567 19.7494 20.4915 19.6553 20.3288L19.6541 20.3332C19.5642 20.1774 19.4671 20.0269 19.3698 19.8767L5.11157 25.0189L6.56678 27.8774C7.23165 29.1824 8.14379 30.3092 9.22797 31.2162L40.1662 21.5208C40.1912 20.6976 40.2555 19.895 40.3545 19.1177Z" fill="white"/>
<path d="M49.496 18.5972L82.2018 8.34773C80.2067 5.89216 77.1948 4.41146 73.9562 4.39112L73.957 4.38989H73.8888H73.8687H63.5737H63.5056H63.4855C63.4176 4.38989 63.3507 4.39577 63.2828 4.397C63.1973 4.3992 63.1115 4.40166 63.0262 4.40607C62.6841 4.42077 62.3449 4.45263 62.0097 4.49895L45.8759 10.3176C47.622 11.9688 48.951 14.9663 49.496 18.5972Z" fill="white"/>
</g>
</g>
</g>
<defs>
<radialGradient id="paint0_radial_2001_68" cx="0" cy="0" r="1" gradientUnits="userSpaceOnUse" gradientTransform="translate(45.8855 46.7604) scale(41.7694 3.85949)">
<stop offset="0.0015" stop-color="#606060"/>
<stop offset="1" stop-color="#606060" stop-opacity="0"/>
</radialGradient>
<linearGradient id="paint1_linear_2001_68" x1="19.4015" y1="19.5579" x2="8.4538" y2="30.5056" gradientUnits="userSpaceOnUse">
<stop stop-color="#FF00CC"/>
<stop offset="1" stop-color="#333399"/>
</linearGradient>
<linearGradient id="paint2_linear_2001_68" x1="14.7925" y1="35.1931" x2="50.0869" y2="-0.101342" gradientUnits="userSpaceOnUse">
<stop stop-color="#FF00CC"/>
<stop offset="1" stop-color="#333399"/>
</linearGradient>
<linearGradient id="paint3_linear_2001_68" x1="25.8137" y1="28.5617" x2="40.4314" y2="13.9439" gradientUnits="userSpaceOnUse">
<stop stop-color="#56BCD6"/>
<stop offset="1" stop-color="#6E11FF"/>
</linearGradient>
<linearGradient id="paint4_linear_2001_68" x1="38.4775" y1="39.5778" x2="73.7669" y2="4.28842" gradientUnits="userSpaceOnUse">
<stop stop-color="#56BCD6"/>
<stop offset="1" stop-color="#6E11FF"/>
</linearGradient>
<linearGradient id="paint5_linear_2001_68" x1="36.4892" y1="16.863" x2="73.8686" y2="16.863" gradientUnits="userSpaceOnUse">
<stop stop-color="#FF00CC"/>
<stop offset="1" stop-color="#333399"/>
</linearGradient>
<linearGradient id="paint6_linear_2001_68" x1="64.097" y1="3.59557" x2="23.1851" y2="33.4439" gradientUnits="userSpaceOnUse">
<stop stop-color="#FF00CC"/>
<stop offset="1" stop-color="#333399"/>
</linearGradient>
<linearGradient id="paint7_linear_2001_68" x1="70.5984" y1="18.5579" x2="81.546" y2="7.6102" gradientUnits="userSpaceOnUse">
<stop stop-color="#6E11FF"/>
<stop offset="1" stop-color="#56BCD6"/>
</linearGradient>
</defs>
</svg>
