<svg opacity=".7" width="430" height="787" viewBox="0 0 430 787" fill="none" xmlns="http://www.w3.org/2000/svg">
<g clip-path="url(#clip0_2041_2494)">
<mask id="mask0_2041_2494" style="mask-type:luminance" maskUnits="userSpaceOnUse" x="0" y="0" width="430" height="500">
<path d="M278.16 267.387C277.849 300.83 250.458 327.716 216.968 327.417C183.502 327.119 156.608 299.757 156.921 266.291C157.233 232.848 184.624 205.962 218.113 206.261C251.601 206.583 278.495 233.946 278.16 267.387ZM427.724 489.376L428.192 489.364L428.211 488.895L428.972 469.738L428.983 469.461L428.754 469.305L354.388 418.644C360.265 390.293 363.491 360.986 363.775 330.935C364.995 201.373 311.317 84.089 224.437 1.15506L224.106 0.839355L223.762 1.14086C130.605 82.764 71.2904 202.177 70.0384 335.698C69.7824 363.229 71.9984 390.233 76.4984 416.447L1.6569 465.45L1.4248 465.602L1.4307 465.879L1.8409 485.182L1.8482 485.524L2.1696 485.641L39.6584 499.286L39.7474 499.319L39.8424 499.316L427.724 489.376Z" fill="white" stroke="white"/>
</mask>
<g mask="url(#mask0_2041_2494)">
<path d="M459.031 17.0139L33.5461 -11.0234L-0.0576172 496.16L425.427 524.197L459.031 17.0139Z" fill="#B45EFF"/>
</g>
<mask id="mask1_2041_2494" style="mask-type:luminance" maskUnits="userSpaceOnUse" x="0" y="353" width="430" height="434">
<path d="M266.498 598.861L266.454 598.415L266.005 598.411L154.878 597.419L154.489 597.416L154.39 597.792C148.592 619.741 151.142 645.704 155.12 666.139C157.11 676.364 159.462 685.221 161.316 691.522C162.243 694.673 163.046 697.186 163.617 698.912C163.903 699.774 164.131 700.441 164.288 700.891C164.327 701.004 164.361 701.103 164.391 701.189C164.421 701.274 164.447 701.346 164.467 701.404L164.514 701.535L164.526 701.568L164.529 701.577L164.53 701.579C164.53 701.58 164.53 701.58 165 701.41L164.53 701.58L164.72 702.103L165.22 701.859L190.649 689.44C193.287 711.07 199.945 734.463 205.966 752.504C209.01 761.624 211.893 769.383 214.015 774.861C215.076 777.601 215.947 779.77 216.553 781.256C216.856 781.998 217.092 782.57 217.253 782.956C217.334 783.149 217.396 783.296 217.437 783.395L217.484 783.506L217.496 783.534L217.499 783.542L217.5 783.543C217.5 783.544 217.5 783.544 217.96 783.348L217.5 783.543L217.987 784.688L218.428 783.525C225.101 765.935 229.505 741.396 232.241 721.283C233.61 711.221 234.563 702.256 235.174 695.806C235.479 692.581 235.699 689.985 235.842 688.195C235.909 687.355 235.96 686.693 235.995 686.226L263.861 702.736L264.469 703.096L264.607 702.403C268.661 682.084 269.13 656.189 268.59 635.399C268.32 624.998 267.797 615.865 267.342 609.333C267.114 606.066 266.903 603.449 266.749 601.649C266.673 600.748 266.61 600.052 266.566 599.581C266.559 599.508 266.553 599.44 266.547 599.378C266.534 599.239 266.524 599.128 266.516 599.045L266.503 598.908L266.499 598.873V598.865L266.498 598.861C266.498 598.861 266.498 598.861 266.001 598.911L266.498 598.861ZM2.6384 465.004L2.443 464.967L2.2756 465.075L1.7193 465.432L1.4834 465.583L1.4892 465.863L4.6721 619.557L4.6894 620.389L5.4159 619.983L124.013 553.655C128.877 562.606 134 571.372 139.428 579.957L139.574 580.187L139.846 580.189L284.529 581.491L284.795 581.493L284.946 581.273C291.062 572.366 296.88 563.214 302.376 553.838L415.703 619.945L416.014 620.126L416.285 619.889L423.144 613.883L423.306 613.742L423.314 613.527L429.017 469.698L429.027 469.421L428.799 469.265L354.438 418.605C358.785 397.704 361.676 376.25 363.013 354.373L363.049 353.784L362.462 353.845C315.1 358.824 272.416 382.911 228.32 407.794C220.918 411.971 213.477 416.17 205.968 420.305C153.676 449.097 97.9911 474.833 29.0001 468.656C19.8551 467.823 11.0837 466.599 2.6384 465.004Z" fill="white"/>
<path d="M266.498 598.861L266.454 598.415L266.005 598.411L154.878 597.419L154.489 597.416L154.39 597.792C148.592 619.741 151.142 645.704 155.12 666.139C157.11 676.364 159.462 685.221 161.316 691.522C162.243 694.673 163.046 697.186 163.617 698.912C163.903 699.774 164.131 700.441 164.288 700.891C164.327 701.004 164.361 701.103 164.391 701.189C164.421 701.274 164.447 701.346 164.467 701.404L164.514 701.535L164.526 701.568L164.529 701.577L164.53 701.579C164.53 701.58 164.53 701.58 165 701.41L164.53 701.58L164.72 702.103L165.22 701.859L190.649 689.44C193.287 711.07 199.945 734.463 205.966 752.504C209.01 761.624 211.893 769.383 214.015 774.861C215.076 777.601 215.947 779.77 216.553 781.256C216.856 781.998 217.092 782.57 217.253 782.956C217.334 783.149 217.396 783.296 217.437 783.395L217.484 783.506L217.496 783.534L217.499 783.542L217.5 783.543M266.498 598.861L266.499 598.865V598.873L266.503 598.908L266.516 599.045C266.524 599.128 266.534 599.239 266.547 599.378C266.553 599.44 266.559 599.508 266.566 599.581C266.61 600.052 266.673 600.748 266.749 601.649C266.903 603.449 267.114 606.066 267.342 609.333C267.797 615.865 268.32 624.998 268.59 635.399C269.13 656.189 268.661 682.084 264.607 702.403L264.469 703.096L263.861 702.736L235.995 686.226C235.96 686.693 235.909 687.355 235.842 688.195C235.699 689.985 235.479 692.581 235.174 695.806C234.563 702.256 233.61 711.221 232.241 721.283C229.505 741.396 225.101 765.935 218.428 783.525L217.987 784.688L217.5 783.543M266.498 598.861C266.498 598.861 266.498 598.861 266.001 598.911L266.498 598.861ZM217.5 783.543C217.5 783.544 217.5 783.544 217.96 783.348L217.5 783.543ZM2.6384 465.004L2.443 464.967L2.2756 465.075L1.7193 465.432L1.4834 465.583L1.4892 465.863L4.6721 619.557L4.6894 620.389L5.4159 619.983L124.013 553.655C128.877 562.606 134 571.372 139.428 579.957L139.574 580.187L139.846 580.189L284.529 581.491L284.795 581.493L284.946 581.273C291.062 572.366 296.88 563.214 302.376 553.838L415.703 619.945L416.014 620.126L416.285 619.889L423.144 613.883L423.306 613.742L423.314 613.527L429.017 469.698L429.027 469.421L428.799 469.265L354.438 418.605C358.785 397.704 361.676 376.25 363.013 354.373L363.049 353.784L362.462 353.845C315.1 358.824 272.416 382.911 228.32 407.794C220.918 411.971 213.477 416.17 205.968 420.305C153.676 449.097 97.9911 474.833 29.0001 468.656C19.8551 467.823 11.0837 466.599 2.6384 465.004Z" stroke="white"/>
</mask>
<g mask="url(#mask1_2041_2494)">
<path d="M10.9574 330.696L10.4585 330.663L10.4254 331.162L-18.8409 772.447L-18.874 772.946L-18.3751 772.979L410.405 801.206L410.904 801.239L410.937 800.74L440.203 359.454L440.236 358.955L439.737 358.923L10.9574 330.696Z" fill="url(#paint0_linear_2041_2494)" stroke="url(#paint1_linear_2041_2494)"/>
</g>
</g>
<defs>
<linearGradient id="paint0_linear_2041_2494" x1="225.314" y1="345.308" x2="196.263" y2="786.608" gradientUnits="userSpaceOnUse">
<stop stop-color="#8247FF"/>
<stop offset="1" stop-color="#F47BFF"/>
</linearGradient>
<linearGradient id="paint1_linear_2041_2494" x1="216.777" y1="602.483" x2="419.323" y2="610.467" gradientUnits="userSpaceOnUse">
<stop offset="0.0989855" stop-color="#9747FF"/>
<stop offset="0.573048" stop-color="#D347F4"/>
<stop offset="1" stop-color="#D87DF8"/>
</linearGradient>
<clipPath id="clip0_2041_2494">
<rect width="430" height="787" fill="white"/>
</clipPath>
</defs>
</svg>
