<svg width="21" height="22" viewBox="0 0 21 22" fill="none" xmlns="http://www.w3.org/2000/svg">
<g clip-path="url(#clip0_2071_633)">
<path d="M19.8667 5.01C19.5867 2.82 17.6667 1.1 15.3667 0.76C14.9867 0.71 13.5267 0.5 10.1467 0.5H10.1267C6.74666 0.5 6.02666 0.7 5.63666 0.76C3.41666 1.1 1.39666 2.64 0.906662 4.86C0.694182 5.98002 0.620293 7.12193 0.686662 8.26C0.746662 9.86 0.756662 11.44 0.906662 13.02C1.00666 14.08 1.17666 15.12 1.42666 16.15C1.89666 18.05 3.78666 19.63 5.63666 20.27C7.84538 21.0144 10.2293 21.0633 12.4667 20.41C12.9667 20.26 13.5467 20.08 13.9667 19.77C13.9736 19.7675 13.9798 19.7635 13.985 19.7583C13.9902 19.7532 13.9942 19.7469 13.9967 19.74V18.18C13.9905 18.1703 13.9812 18.163 13.9702 18.1593C13.9593 18.1557 13.9474 18.1559 13.9367 18.16C12.6367 18.46 11.2867 18.62 9.93666 18.62C7.62666 18.62 6.99666 17.53 6.82666 17.08C6.68325 16.6737 6.59579 16.2498 6.56666 15.82C6.57297 15.8172 6.57978 15.8158 6.58666 15.8158C6.59354 15.8158 6.60035 15.8172 6.60666 15.82C7.89666 16.12 9.20666 16.28 10.5367 16.28L11.4967 16.27C12.8508 16.2583 14.2018 16.1379 15.5367 15.91L15.6367 15.89C17.6967 15.49 19.6667 14.26 19.8667 11.13L19.8967 9.72C19.8967 9.28 20.0367 6.64 19.8767 5.01H19.8667ZM16.6967 12.81H14.5167V7.54C14.5167 6.43 14.0467 5.86 13.0967 5.86C12.0567 5.86 11.5367 6.53 11.5367 7.86V10.74H9.36666V7.85C9.36666 6.53 8.83666 5.85 7.79666 5.85C6.84666 5.85 6.37666 6.43 6.37666 7.54V12.81H4.21666V7.38C4.21666 6.27 4.50666 5.38 5.07666 4.73C5.36831 4.40645 5.72691 4.15029 6.12756 3.97932C6.5282 3.80836 6.96127 3.72669 7.39666 3.74C8.51666 3.74 9.35666 4.16 9.91666 5.01L10.4567 5.91L10.9967 5.01C11.2673 4.59714 11.6415 4.26255 12.082 4.03969C12.5225 3.81682 13.0137 3.71348 13.5067 3.74C13.9437 3.72522 14.3787 3.80618 14.7812 3.97719C15.1837 4.1482 15.5439 4.40514 15.8367 4.73C16.4067 5.38 16.6967 6.26 16.6967 7.38V12.81Z" fill="#9B9B9B"/>
</g>
<defs>
<clipPath id="clip0_2071_633">
<rect width="20" height="21" fill="white" transform="translate(0.166626 0.5)"/>
</clipPath>
</defs>
</svg>
