<svg width="25" height="24" viewBox="0 0 25 24" fill="none" xmlns="http://www.w3.org/2000/svg">
<g clip-path="url(#clip0_2071_647)">
<path d="M0.833252 1.72C0.833252 0.77 1.62325 0 2.59325 0H23.0733C24.0333 0 24.8333 0.77 24.8333 1.72V22.28C24.8333 23.23 24.0433 24 23.0733 24H2.59325C1.63325 24 0.833252 23.23 0.833252 22.28V1.72ZM8.24325 20.09V9.25H4.64325V20.1H8.24325V20.09ZM6.44325 7.77C7.70325 7.77 8.48325 6.94 8.48325 5.9C8.46325 4.84 7.70325 4.03 6.47325 4.03C5.24325 4.03 4.43325 4.83 4.43325 5.9C4.43325 6.94 5.21325 7.77 6.42325 7.77H6.44325ZM13.8133 20.09V14.04C13.8133 13.71 13.8333 13.39 13.9333 13.16C14.1933 12.51 14.7833 11.84 15.7733 11.84C17.0733 11.84 17.6033 12.84 17.6033 14.29V20.09H21.2033V13.88C21.2033 10.54 19.4233 9 17.0533 9C16.4014 8.97484 15.755 9.12828 15.184 9.44376C14.6129 9.75923 14.139 10.2247 13.8133 10.79V10.82H13.7833L13.8133 10.79V9.25H10.2133C10.2533 10.27 10.2133 20.09 10.2133 20.09H13.8133Z" fill="#9B9B9B"/>
</g>
<defs>
<clipPath id="clip0_2071_647">
<rect width="24" height="24" fill="white" transform="translate(0.833252)"/>
</clipPath>
</defs>
</svg>
