<svg width="23" height="24" viewBox="0 0 23 24" fill="none" xmlns="http://www.w3.org/2000/svg">
<g clip-path="url(#clip0_2071_637)">
<path d="M8.04263 0.763905C6.93135 0.975578 6.13757 1.95457 6.13757 3.09231C6.13757 4.03602 6.61384 4.80333 7.46935 5.22668C7.95443 5.46481 8.01617 5.47363 9.42733 5.47363H10.8826V4.01838C10.8826 2.7307 10.8561 2.51903 10.6974 2.15742C10.2299 1.13433 9.11864 0.552232 8.04263 0.763905Z" fill="#9B9B9B"/>
<path d="M13.9872 0.764699C13.4492 0.888175 12.9994 1.16159 12.6554 1.55847C12.0733 2.23759 12.0645 2.35225 12.0909 6.23292C12.1174 9.63733 12.1174 9.71671 12.3114 10.0783C12.7348 10.8633 13.6344 11.4277 14.4546 11.4277C15.2748 11.4277 16.1745 10.8633 16.5978 10.0783C16.7918 9.71671 16.7918 9.63733 16.8183 6.23292C16.8448 2.31697 16.8359 2.22877 16.2186 1.52319C15.6806 0.914634 14.7192 0.588304 13.9872 0.764699Z" fill="#9B9B9B"/>
<path d="M1.72767 6.79738C1.22494 6.9826 0.757499 7.3883 0.492908 7.89103C-0.0362753 8.85238 0.12248 9.91074 0.898615 10.6869C1.62183 11.4101 1.72767 11.4277 5.5466 11.4277C9.20679 11.4277 9.392 11.4013 10.0623 10.8104C10.7855 10.1753 11.0854 8.98467 10.7326 8.15562C10.5209 7.67054 9.96528 7.10607 9.47138 6.87676C9.03039 6.66509 9.01275 6.66509 5.5466 6.67391C2.78603 6.67391 1.99226 6.70037 1.72767 6.79738Z" fill="#9B9B9B"/>
<path d="M19.6142 6.77974C19.1291 6.96496 18.7146 7.27365 18.4764 7.62644C18.0796 8.19972 17.9825 8.67598 17.9825 10.1224V11.4277H19.332C20.8401 11.4277 21.14 11.366 21.7397 10.9603C22.3659 10.5458 22.6923 9.97248 22.7276 9.20517C22.7893 8.15562 22.2954 7.30011 21.3781 6.87676C20.8842 6.64745 20.0816 6.60335 19.6142 6.77974Z" fill="#9B9B9B"/>
<path d="M1.91284 12.6977C0.528145 13.0682 -0.221531 14.7351 0.422309 16.0051C0.880934 16.8871 1.59533 17.3369 2.53904 17.3369C3.52685 17.3369 4.34708 16.8166 4.74397 15.9258C4.90272 15.5818 4.92918 15.3437 4.92918 14.0472V12.5743L3.63268 12.5831C2.88301 12.5831 2.15097 12.636 1.91284 12.6977Z" fill="#9B9B9B"/>
<path d="M7.76916 12.7326C7.12532 12.9619 6.69315 13.3412 6.38446 13.9409L6.11987 14.4613V17.9539V21.4465L6.38446 21.9668C6.70197 22.593 7.21352 23.0076 7.91028 23.2104C9.18031 23.5808 10.5562 22.7077 10.8384 21.3583C10.9002 21.0319 10.9266 19.806 10.909 17.6716C10.8825 14.6377 10.8737 14.4524 10.6973 14.0732C10.4239 13.4911 10.0976 13.1383 9.56838 12.8825C8.94218 12.5738 8.36008 12.5297 7.76916 12.7326Z" fill="#9B9B9B"/>
<path d="M13.6785 12.7418C12.8141 13.0417 12.1791 13.8531 12.0997 14.7792C12.0116 15.7582 12.5584 16.7195 13.4315 17.1252C13.8813 17.3369 13.8901 17.3369 17.3563 17.3369C19.7641 17.3369 20.9371 17.3016 21.1752 17.2311C21.3693 17.1782 21.7044 16.9665 21.9249 16.7725C23.2126 15.6435 22.9568 13.6062 21.4398 12.8653L20.9371 12.6184L17.5415 12.6007C14.4193 12.5743 14.1106 12.5919 13.6785 12.7418Z" fill="#9B9B9B"/>
<path d="M12.0908 20.0885C12.1173 21.4556 12.1349 21.6496 12.3113 21.976C12.5406 22.4081 13.1227 22.9461 13.5637 23.1402C13.9782 23.3166 14.9308 23.3166 15.3453 23.1402C15.7863 22.9461 16.3684 22.3993 16.5889 21.976C17.171 20.8382 16.6418 19.3212 15.4776 18.7832C15.0631 18.5892 14.9131 18.5716 13.5461 18.5716H12.0555L12.0908 20.0885Z" fill="#9B9B9B"/>
</g>
<defs>
<clipPath id="clip0_2071_637">
<rect width="22.6667" height="22.6667" fill="white" transform="translate(0.166626 0.666992)"/>
</clipPath>
</defs>
</svg>
