<svg width="21" height="20" viewBox="0 0 21 20" fill="none" xmlns="http://www.w3.org/2000/svg">
<g clip-path="url(#clip0_2071_631)">
<path d="M10.1666 0.25C7.7959 0.255364 5.5042 1.1028 3.70036 2.64113C1.89652 4.17945 0.697872 6.30861 0.318263 8.64873C-0.0613469 10.9889 0.402773 13.3877 1.62782 15.4174C2.85287 17.4471 4.75916 18.9755 7.0066 19.73C7.5066 19.83 7.6966 19.53 7.6966 19.26L7.6666 17.4C5.1566 17.86 4.5066 16.78 4.3066 16.22C4.1966 15.93 3.7066 15.05 3.2766 14.81C2.9266 14.62 2.4266 14.16 3.2766 14.15C4.0566 14.13 4.6166 14.87 4.8066 15.17C5.7066 16.68 7.1466 16.26 7.7166 16C7.75962 15.4903 7.98719 15.0138 8.3566 14.66C6.1366 14.41 3.8066 13.55 3.8066 9.72C3.79138 8.72611 4.15622 7.76392 4.8266 7.03C4.52152 6.16612 4.55729 5.21843 4.9266 4.38C4.9266 4.38 5.7666 4.12 7.6866 5.41C9.32188 4.95255 11.0513 4.95255 12.6866 5.41C14.5866 4.11 15.4366 4.38 15.4366 4.38C15.9766 5.76 15.6366 6.78 15.5366 7.03C16.1666 7.73 16.5566 8.63 16.5566 9.73C16.5566 13.56 14.2166 14.41 11.9966 14.66C12.3566 14.97 12.6666 15.57 12.6666 16.51L12.6566 19.26C12.6566 19.52 12.8466 19.83 13.3466 19.73C15.5719 18.9536 17.4523 17.4176 18.6573 15.3921C19.8623 13.3665 20.3147 10.981 19.9349 8.65493C19.5552 6.32885 18.3677 4.21107 16.5811 2.67386C14.7946 1.13665 12.5233 0.278405 10.1666 0.25Z" fill="#9B9B9B"/>
</g>
<defs>
<clipPath id="clip0_2071_631">
<rect width="20" height="20" fill="white" transform="translate(0.166626)"/>
</clipPath>
</defs>
</svg>
