<svg width="38" height="38" viewBox="0 0 38 38" fill="none" xmlns="http://www.w3.org/2000/svg">
<path fill-rule="evenodd" clip-rule="evenodd" d="M23.7634 0.486201C23.7145 0.54506 23.5892 0.844196 23.4849 1.15091C23.026 2.50006 22.2497 3.74821 21.2183 4.79488C20.1106 5.9189 18.9878 6.65121 17.6256 7.13816C16.7218 7.46119 16.652 7.50834 16.652 7.79506C16.652 8.06649 16.7413 8.1362 17.2912 8.29381C17.963 8.48647 19.3879 9.2297 20.0681 9.74226C21.6652 10.9458 22.9221 12.688 23.5305 14.5417C23.7168 15.1091 23.9496 15.3235 24.2048 15.1626C24.3748 15.0553 24.4204 14.9646 24.6958 14.1858C25.1242 12.9743 26.169 11.3713 27.0817 10.5253C28.0729 9.60643 29.2123 8.89918 30.4551 8.4312C31.4026 8.07437 31.5455 7.96391 31.4396 7.67024C31.3788 7.50139 31.2407 7.42021 30.6631 7.21326C29.2385 6.70289 28.1651 6.03373 27.0671 4.97145C25.9481 3.88888 25.0767 2.53543 24.6141 1.16121C24.5204 0.882916 24.4105 0.593147 24.3699 0.517192C24.2813 0.351542 23.8916 0.331636 23.7634 0.486201ZM10.78 15.2863C10.6452 15.3924 10.5081 15.6749 10.335 16.2035C10.033 17.126 9.30641 18.6625 8.80373 19.442C6.96418 22.2941 4.30277 24.3808 1.10434 25.4787C0.198419 25.7896 0 25.9375 0 26.3013C0 26.6479 0.198419 26.7862 1.15781 27.1083C5.46237 28.5533 8.8785 32.0021 10.3344 36.3727C10.6275 37.2525 10.7263 37.3809 11.11 37.3809C11.4927 37.3809 11.6045 37.2408 11.8551 36.4475C13.218 32.1328 16.7254 28.5758 21.0621 27.1102C22.0221 26.7858 22.22 26.6475 22.22 26.3013C22.22 25.9397 22.0113 25.7792 21.1898 25.5089C18.0457 24.4742 15.2592 22.2994 13.4162 19.442C12.9135 18.6625 12.187 17.126 11.8849 16.2035C11.6323 15.4321 11.4158 15.133 11.11 15.133C11.0357 15.133 10.8872 15.202 10.78 15.2863ZM32.2051 16.4795C32.1626 16.5333 32.053 16.8055 31.9614 17.0845C31.6918 17.9067 31.1138 18.8449 30.4337 19.5645C29.5213 20.5299 28.7146 21.0639 27.4628 21.5311C26.9571 21.7197 26.9164 21.752 26.9164 21.9635C26.9164 22.1749 26.9571 22.2072 27.4628 22.3958C28.7156 22.8634 29.5223 23.3976 30.4337 24.3634C31.1205 25.0912 31.638 25.9301 31.9563 26.8319C32.3022 27.812 32.5237 27.7959 32.9236 26.7614C33.714 24.7167 35.2553 23.1909 37.2978 22.4312C38.2013 22.0952 38.2307 21.8354 37.3989 21.5381C35.3632 20.8104 33.752 19.2623 32.9688 17.2813C32.6311 16.4272 32.6037 16.382 32.4242 16.382C32.3462 16.382 32.2476 16.4259 32.2051 16.4795Z" fill="url(#paint0_linear_157_1430)"/>
<defs>
<linearGradient id="paint0_linear_157_1430" x1="-2.89926e-08" y1="29.5085" x2="42.5917" y2="28.3383" gradientUnits="userSpaceOnUse">
<stop offset="0.0989855" stop-color="#B73EEE"/>
<stop offset="0.573048" stop-color="#D347F4"/>
<stop offset="1" stop-color="#D87DF8"/>
</linearGradient>
</defs>
</svg>
